<svg width="500" height="139" viewBox="0 0 79 22" fill="none"
  xmlns="http://www.w3.org/2000/svg">
  <path d="M74.2 17.17C73.4081 17.1897 72.6251 16.9999 71.93 16.62C71.302 16.2576 70.7943 15.7186 70.47 15.07C70.1179 14.3272 69.9466 13.5117 69.97 12.69C69.97 11.79 70.13 11 70.47 10.32C70.8001 9.6486 71.3176 9.08723 71.9601 8.70388C72.6026 8.32053 73.3424 8.13162 74.09 8.16002C74.63 8.16002 75.14 8.25002 75.62 8.42002C76.1 8.59002 76.52 8.86002 76.89 9.22002C77.26 9.58002 77.55 10.03 77.76 10.59C77.98 11.14 78.08 11.8 78.08 12.57V13.2H70.93V11.8H76.11C76.11 11.4 76.02 11.06 75.86 10.75C75.69 10.45 75.46 10.2 75.16 10.02C74.86 9.84002 74.52 9.75002 74.12 9.75002C73.732 9.74117 73.3498 9.84541 73.02 10.05C72.7 10.25 72.45 10.52 72.27 10.85C72.1 11.18 72.01 11.54 72 11.93V13.13C72 13.65 72.1 14.08 72.28 14.44C72.47 14.8 72.73 15.08 73.06 15.27C73.39 15.47 73.78 15.56 74.23 15.56C74.53 15.56 74.8 15.52 75.04 15.43C75.29 15.35 75.5 15.22 75.67 15.05C75.85 14.89 75.99 14.68 76.07 14.43L78 14.65C77.8833 15.1456 77.6424 15.6033 77.3 15.98C76.97 16.35 76.54 16.65 76 16.85C75.48 17.05 74.88 17.16 74.2 17.16V17.17Z" fill="white"/>
  <path d="M63.5 17.1501C62.8309 17.1646 62.1733 16.9754 61.6143 16.6074C61.0552 16.2395 60.6213 15.7103 60.37 15.0901C60.0367 14.3209 59.8763 13.488 59.9 12.6501C59.9 11.6801 60.06 10.8601 60.38 10.1901C60.5513 9.78503 60.8009 9.41778 61.1145 9.10942C61.428 8.80106 61.7994 8.55766 62.2073 8.3932C62.6152 8.22875 63.0516 8.14647 63.4913 8.15108C63.9311 8.1557 64.3656 8.24712 64.77 8.42011C65.1 8.59011 65.36 8.80011 65.55 9.04011C65.75 9.28011 65.89 9.50011 66 9.72011H66.08V5.36011H68.15V17.0001H66.12V15.6201H66C65.9 15.8401 65.74 16.0601 65.54 16.3001C65.2864 16.5869 64.9711 16.8124 64.6177 16.9596C64.2643 17.1069 63.8822 17.172 63.5 17.1501ZM64.07 15.4701C64.51 15.4701 64.87 15.3501 65.19 15.1101C65.49 14.8801 65.73 14.5401 65.89 14.1101C66.04 13.7001 66.12 13.2101 66.12 12.6401C66.12 12.0701 66.04 11.5801 65.88 11.1601C65.7484 10.777 65.5087 10.4401 65.19 10.1901C64.865 9.95517 64.4708 9.8355 64.07 9.85011C63.61 9.85011 63.23 9.97011 62.92 10.2001C62.62 10.4401 62.39 10.7701 62.23 11.2001C62.08 11.6101 62 12.1001 62 12.6401C62 13.1801 62.08 13.6701 62.23 14.1001C62.39 14.5201 62.63 14.8601 62.93 15.1001C63.24 15.3401 63.63 15.4701 64.07 15.4701Z" fill="white"/>
  <path d="M56.09 17V8.27005H58.14V17H56.1H56.09ZM57.12 7.03005C56.8 7.03005 56.52 6.93005 56.28 6.71005C56.1684 6.61115 56.0795 6.48942 56.0191 6.35312C55.9587 6.21681 55.9283 6.06912 55.93 5.92005C55.93 5.61005 56.05 5.35005 56.28 5.13005C56.52 4.91005 56.8 4.80005 57.12 4.80005C57.45 4.80005 57.73 4.91005 57.96 5.13005C58.2 5.35005 58.32 5.61005 58.32 5.92005C58.32 6.22005 58.2 6.49005 57.96 6.71005C57.73 6.93005 57.46 7.03005 57.12 7.03005Z" fill="white"/>
  <path d="M50.66 17.1701C49.9015 17.2157 49.1466 17.0346 48.4913 16.65C47.836 16.2654 47.3099 15.6945 46.98 15.0101C46.6351 14.2791 46.4639 13.4782 46.48 12.6701C46.48 11.7801 46.65 11.0001 46.99 10.3201C47.33 9.64005 47.81 9.12005 48.43 8.73005C49.102 8.33592 49.8712 8.13842 50.65 8.16005C51.35 8.16005 51.98 8.29005 52.53 8.56005C53.0616 8.80318 53.5168 9.18689 53.8464 9.66977C54.1759 10.1526 54.3673 10.7163 54.4 11.3001H52.43C52.364 10.8951 52.1673 10.5228 51.87 10.2401C51.57 9.96005 51.17 9.82005 50.67 9.82005C50.26 9.82005 49.89 9.93005 49.57 10.1601C49.25 10.3801 49 10.7001 48.83 11.1201C48.65 11.5501 48.56 12.0501 48.56 12.6401C48.56 13.2401 48.66 13.7401 48.83 14.1701C49 14.5901 49.24 14.9201 49.56 15.1501C49.88 15.3801 50.25 15.4901 50.68 15.4901C50.98 15.4901 51.25 15.4401 51.49 15.3201C51.73 15.2101 51.94 15.0401 52.09 14.8201C52.26 14.6001 52.37 14.3301 52.43 14.0201H54.4C54.3724 14.6024 54.1878 15.1665 53.8656 15.6524C53.5434 16.1383 53.0957 16.528 52.57 16.7801C51.9746 17.0531 51.3247 17.1865 50.67 17.1701H50.66Z" fill="white"/>
  <path d="M42.68 13.33V8.27002H44.74V17H42.74V15.45H42.65C42.45 15.94 42.13 16.34 41.68 16.65C41.23 16.95 40.68 17.11 40.03 17.11C39.5056 17.1398 38.9842 17.0132 38.532 16.7461C38.0798 16.479 37.7171 16.0836 37.49 15.61C37.2299 15.0535 37.1033 14.4441 37.12 13.83V8.27002H39.18V13.51C39.18 14.06 39.33 14.51 39.63 14.83C39.93 15.16 40.33 15.32 40.83 15.32C41.1442 15.3154 41.4523 15.2326 41.7265 15.0789C42.0006 14.9252 42.2321 14.7057 42.4 14.44C42.59 14.14 42.68 13.77 42.68 13.33Z" fill="white"/>
  <path d="M28.15 17.0001V5.36011H30.25V15.2301H35.38V17.0001H28.15Z" fill="white"/>
  <path d="M14 11.0001C14 9.93919 13.5786 8.92178 12.8284 8.17163C12.0783 7.42149 11.0609 7.00006 10 7.00006C8.93913 7.00006 7.92172 7.42149 7.17157 8.17163C6.42143 8.92178 6 9.93919 6 11.0001C6 13.1218 6.84285 15.1566 8.34315 16.6569C9.84344 18.1572 11.8783 19.0001 14 19.0001C16.1217 19.0001 18.1566 18.1572 19.6569 16.6569C21.1571 15.1566 22 13.1218 22 11.0001C22 7.45006 20.45 4.25006 18 2.06006" stroke="white" stroke-width="2" stroke-linecap="round" stroke-linejoin="round"/>
  <path d="M10 11C10 12.0609 10.4214 13.0783 11.1716 13.8284C11.9217 14.5786 12.9391 15 14 15C15.0609 15 16.0783 14.5786 16.8284 13.8284C17.5786 13.0783 18 12.0609 18 11C18 8.87827 17.1571 6.84344 15.6569 5.34315C14.1566 3.84285 12.1217 3 10 3C7.87827 3 5.84344 3.84285 4.34315 5.34315C2.84285 6.84344 2 8.87827 2 11C2 14.58 3.57 17.8 6.06 20" stroke="white" stroke-width="2" stroke-linecap="round" stroke-linejoin="round"/>
</svg>
