<svg width="491" height="160" viewBox="0 0 491 160" fill="none" xmlns="http://www.w3.org/2000/svg">
<path d="M8.31728 128.833V31.8386H47.8244C69.1721 31.8386 83.45 44.448 83.45 64.1241C83.45 76.5949 76.9348 86.5716 66.8156 91.4213L85.9453 128.833H62.9341L46.5769 96.271H29.1105V128.833H8.31728ZM46.1609 49.159H29.1105V78.9504H46.1609C56.0031 78.9504 62.2411 73.1309 62.2411 64.1241C62.2411 54.9789 56.0031 49.159 46.1609 49.159ZM127.287 129.665C103.583 129.665 89.3047 115.393 89.3047 93.3612C89.3047 71.1909 103.86 56.7801 125.901 56.7801C147.248 56.7801 161.665 70.0824 161.942 91.0054C161.942 93.0841 161.803 95.4396 161.388 97.6567H109.682V98.6265C110.098 108.742 116.613 114.839 126.455 114.839C134.357 114.839 139.902 111.374 141.565 104.724H160.833C158.615 118.58 146.278 129.665 127.287 129.665ZM110.098 84.9087H142.258C140.872 76.1791 134.911 71.3293 126.039 71.3293C117.583 71.3293 111.207 76.4562 110.098 84.9087ZM168.755 105.139H187.331C188.024 111.374 193.43 115.67 202.995 115.67C211.174 115.67 216.164 113.037 216.164 108.049C216.164 102.229 211.312 101.813 199.807 100.289C183.172 98.3494 170.28 94.6082 170.28 79.9203C170.28 65.7869 182.617 56.503 200.916 56.6417C220.045 56.6417 233.214 65.0939 234.184 79.6431H215.471C214.916 73.962 209.51 70.4979 201.609 70.4979C193.984 70.4979 188.994 73.2693 188.994 77.8419C188.994 83.2459 195.093 83.8002 205.351 85.0471C221.709 86.71 235.293 90.4511 235.293 106.525C235.293 120.658 221.986 129.665 202.856 129.665C183.033 129.665 169.587 120.381 168.755 105.139ZM280.799 129.665C257.095 129.665 242.817 115.393 242.817 93.3612C242.817 71.1909 257.372 56.7801 279.413 56.7801C300.761 56.7801 315.177 70.0824 315.455 91.0054C315.455 93.0841 315.316 95.4396 314.9 97.6567H263.194V98.6265C263.61 108.742 270.125 114.839 279.968 114.839C287.869 114.839 293.414 111.374 295.077 104.724H314.346C312.128 118.58 299.791 129.665 280.799 129.665ZM263.61 84.9087H295.77C294.384 76.1791 288.424 71.3293 279.551 71.3293C271.096 71.3293 264.719 76.4562 263.61 84.9087ZM367.029 56.7801C382.417 56.7801 395.586 64.9555 395.586 89.3429V128.833H376.041V91.2826C376.041 79.2276 371.464 72.8538 361.622 72.8538C351.504 72.8538 345.68 80.059 345.68 92.3911V128.833H326.136V57.6115H343.186L344.99 66.4796C349.563 60.9372 356.08 56.7801 367.029 56.7801ZM459.337 66.4796V31.8386H478.882V128.833H461.831L459.89 118.996C455.177 125.092 448.247 129.665 437.988 129.665C418.859 129.665 404.859 115.67 404.859 93.0841C404.859 71.0522 418.859 56.7801 437.851 56.7801C447.691 56.7801 454.761 60.6601 459.337 66.4796ZM442.286 113.73C452.961 113.73 459.612 105.416 459.612 93.3612C459.612 81.1675 452.961 72.715 442.286 72.715C431.612 72.715 424.82 81.0288 424.82 93.2225C424.82 105.416 431.612 113.73 442.286 113.73Z" fill="white"/>
</svg>
