<svg width="658" height="147" viewBox="0 0 658 147" fill="none" xmlns="http://www.w3.org/2000/svg">
<path d="M637.351 110.25V56.7902H650.005V110.25H637.351ZM643.678 49.2105C642.273 49.226 640.892 48.8395 639.7 48.0967C638.507 47.3539 637.552 46.2859 636.949 45.0187C636.546 44.2148 636.373 43.2961 636.373 42.3773C636.366 41.4633 636.558 40.5587 636.936 39.726C637.313 38.8932 637.867 38.1521 638.559 37.5539C639.939 36.2332 641.78 35.4867 643.736 35.5441C645.749 35.5441 647.417 36.2332 648.912 37.5539C649.594 38.1574 650.137 38.9009 650.504 39.7334C650.872 40.5659 651.054 41.4677 651.04 42.3773C651.04 44.2722 650.293 45.88 648.855 47.2007C647.462 48.525 645.601 49.2472 643.678 49.2105ZM611.756 87.7406V56.8476H624.41V110.25H612.159V100.775H611.583C610.364 103.748 608.28 106.288 605.602 108.068C602.898 110.02 599.505 110.939 595.478 110.939C592.269 111.116 589.08 110.337 586.315 108.701C583.55 107.066 581.334 104.647 579.949 101.752C578.396 98.7656 577.648 95.0906 577.648 90.8414V56.7902H590.302V88.889C590.302 92.2769 591.165 94.9757 593.063 96.9281C594.903 98.9379 597.319 99.9715 600.367 99.9715C602.208 99.9715 604.049 99.5121 605.774 98.5933C607.5 97.6746 608.995 96.2964 610.03 94.5738C611.181 92.7363 611.756 90.4968 611.756 87.798V87.7406ZM569.596 35.6015L546.589 120.988H535.488L558.495 35.6015H569.538H569.596Z" fill="white"/>
<path fill-rule="evenodd" clip-rule="evenodd" d="M122.915 70.2269C123.35 70.6543 123.695 71.1638 123.931 71.7258C124.166 72.2877 124.288 72.8908 124.288 73.4999C124.288 74.1091 124.166 74.7122 123.931 75.2741C123.695 75.836 123.35 76.3455 122.915 76.773L76.9009 122.71C76.0313 123.579 74.852 124.066 73.6224 124.066C72.3927 124.066 71.2134 123.579 70.3439 122.71C69.4744 121.842 68.9859 120.665 68.9859 119.437C68.9859 118.21 69.4744 117.032 70.3439 116.164L116.358 70.2269C116.786 69.7929 117.296 69.4482 117.859 69.2129C118.422 68.9776 119.026 68.8564 119.636 68.8564C120.247 68.8564 120.851 68.9776 121.413 69.2129C121.976 69.4482 122.487 69.7929 122.915 70.2269ZM113.712 19.6956C114.147 20.1231 114.492 20.6326 114.728 21.1945C114.963 21.7564 115.085 22.3595 115.085 22.9687C115.085 23.5779 114.963 24.181 114.728 24.7429C114.492 25.3048 114.147 25.8143 113.712 26.2417L26.2855 113.523C25.8549 113.953 25.3438 114.294 24.7813 114.526C24.2188 114.759 23.6159 114.879 23.007 114.879C22.3981 114.879 21.7952 114.759 21.2327 114.526C20.6701 114.294 20.159 113.953 19.7285 113.523C19.2979 113.093 18.9564 112.583 18.7234 112.021C18.4904 111.46 18.3705 110.858 18.3705 110.25C18.3705 109.642 18.4904 109.04 18.7234 108.479C18.9564 107.917 19.2979 107.407 19.7285 106.977L107.155 19.6956C107.583 19.2616 108.094 18.9169 108.656 18.6816C109.219 18.4464 109.823 18.3252 110.434 18.3252C111.044 18.3252 111.648 18.4464 112.211 18.6816C112.774 18.9169 113.284 19.2616 113.712 19.6956Z" fill="white"/>
<path d="M493.212 78.9551V110.25H480.616V56.7903H492.695V65.8629H493.27C494.478 62.9918 496.548 60.4653 499.194 58.7426C501.898 57.02 505.291 56.1012 509.26 56.1012C512.633 56.0145 515.969 56.8272 518.923 58.4555C521.684 60.0633 523.927 62.475 525.365 65.3461C526.86 68.3321 527.665 71.9497 527.608 76.2563V110.25H514.954V78.1512C514.954 74.5911 514.091 71.8348 512.193 69.7676C511.217 68.7354 510.026 67.9284 508.705 67.4028C507.384 66.8771 505.963 66.6456 504.543 66.7243C502.358 66.7243 500.402 67.2411 498.677 68.2172C496.951 69.1934 495.571 70.629 494.65 72.3516C493.73 74.1891 493.212 76.3711 493.212 78.9551ZM447.313 111.284C442.659 111.567 438.025 110.463 434 108.111C429.975 105.76 426.741 102.267 424.709 98.0766C422.594 93.5913 421.551 88.6773 421.661 83.7211C421.57 78.7542 422.653 73.8358 424.824 69.3657C426.78 65.3461 429.828 61.9008 433.682 59.604C437.478 57.3071 442.022 56.1012 447.256 56.1012C451.223 56.0338 455.155 56.8581 458.759 58.5129C462.031 60.0043 464.832 62.3599 466.859 65.3252C468.887 68.2906 470.064 71.7528 470.263 75.3375H458.184C457.777 72.8558 456.564 70.5762 454.733 68.8489C452.893 67.1262 450.477 66.2649 447.429 66.2649C445.013 66.2649 442.597 66.954 440.641 68.3321C438.686 69.7102 437.19 71.6625 436.04 74.2465C434.895 77.2111 434.347 80.3725 434.43 83.5489C434.43 87.1665 435.005 90.3247 436.04 92.9086C437.133 95.4926 438.628 97.5024 440.584 98.9379C442.588 100.335 444.985 101.059 447.429 101.005C449.269 101.005 450.937 100.661 452.432 99.9715C453.87 99.2825 455.193 98.2489 456.114 96.8707C457.206 95.4352 457.839 93.77 458.184 91.9899H470.263C470.088 95.551 468.954 98.9991 466.98 101.97C465.006 104.942 462.265 107.326 459.047 108.872C455.373 110.563 451.358 111.388 447.313 111.284ZM381.974 111.169C377.875 111.246 373.85 110.08 370.43 107.824C367.01 105.569 364.357 102.33 362.82 98.536C360.778 93.8296 359.797 88.733 359.944 83.6063C359.944 77.6344 360.922 72.6387 362.82 68.5618C364.833 64.4274 367.479 61.3266 370.873 59.2594C373.669 57.4994 376.85 56.4395 380.144 56.1695C383.439 55.8996 386.75 56.4277 389.796 57.709C391.637 58.6278 393.247 59.8911 394.57 61.4989C395.663 62.7622 396.583 64.1403 397.331 65.6333H397.906V38.9895H410.56V110.25H398.136V101.809H397.331C396.583 103.302 395.605 104.68 394.512 105.943C392.956 107.706 391.018 109.093 388.846 109.998C386.674 110.903 384.324 111.303 381.974 111.169ZM385.54 100.833C387.996 100.913 390.407 100.165 392.384 98.7082C394.225 97.2153 395.663 95.2055 396.641 92.6215C397.659 89.7073 398.146 86.6346 398.078 83.5489C398.078 80.1036 397.618 77.0602 396.641 74.5336C395.832 72.1731 394.353 70.0982 392.384 68.5618C390.389 67.0972 387.957 66.3485 385.482 66.4372C382.721 66.4372 380.363 67.1836 378.465 68.6192C376.624 70.1122 375.187 72.0645 374.209 74.7059C373.21 77.5457 372.724 80.5396 372.771 83.5489C372.771 86.8793 373.288 89.8653 374.209 92.4493C375.187 95.0907 376.624 97.1004 378.523 98.6508C380.421 100.086 382.779 100.833 385.54 100.833ZM321.178 111.341C317.784 111.341 314.736 110.767 311.975 109.504C309.376 108.347 307.161 106.475 305.59 104.106C304.037 101.694 303.29 98.7657 303.29 95.2629C303.29 92.2196 303.865 89.7504 304.958 87.7981C305.993 85.8457 307.603 84.1805 309.502 83.0321C311.517 81.805 313.709 80.8947 316.001 80.3332C318.474 79.759 321.005 79.2422 323.593 79.0126L331.243 78.1512C333.199 77.8641 334.579 77.4047 335.499 76.8879C336.362 76.3137 336.822 75.395 336.822 74.1891V74.0168C336.822 71.3754 336.017 69.3082 334.522 67.8727C332.911 66.4372 330.668 65.7481 327.735 65.7481C325.147 65.6185 322.586 66.3231 320.43 67.7579C318.763 68.9397 317.498 70.603 316.806 72.5239L305.015 70.8586C305.819 67.8108 307.378 65.014 309.55 62.726C311.721 60.438 314.434 58.7324 317.439 57.7665C323.241 55.8903 329.446 55.6321 335.384 57.02C337.915 57.5942 340.273 58.5704 342.402 60.0059C344.53 61.384 346.313 63.3364 347.521 65.5758C348.786 67.9875 349.419 70.9161 349.419 74.4762V110.25H337.34V102.9H336.88C335.088 106.29 332.094 108.891 328.482 110.193C326.412 110.939 323.938 111.341 321.178 111.341ZM324.456 102.096C326.987 102.096 329.173 101.522 331.013 100.603C332.796 99.627 334.292 98.2489 335.327 96.5836C336.362 94.861 336.88 93.0235 336.88 91.0711V84.7547C336.477 85.0993 335.787 85.3864 334.809 85.6735C332.637 86.1783 330.451 86.6187 328.252 86.9942L325.261 87.3961C323.421 87.6258 321.695 88.0852 320.257 88.6594C318.877 89.1188 317.669 89.9801 316.691 91.0711C315.828 92.1047 315.426 93.368 315.426 95.0907C315.426 97.3876 316.289 99.1102 317.957 100.259C319.682 101.465 321.81 102.096 324.456 102.096ZM258.196 78.9551V110.25H245.542V38.9895H257.908V65.8629H258.484C259.691 62.9918 261.762 60.4653 264.35 58.7426C267.384 56.8713 270.91 55.9512 274.473 56.1012C278.155 56.1012 281.376 56.8477 284.194 58.3981C286.955 60.0059 289.083 62.2454 290.578 65.2887C292.131 68.2172 292.879 71.8922 292.879 76.1989V110.25H280.283V78.1512C280.283 74.5911 279.362 71.7774 277.464 69.7676C276.477 68.7341 275.276 67.9267 273.945 67.4013C272.615 66.8759 271.186 66.6449 269.757 66.7243C267.514 66.7243 265.501 67.2411 263.775 68.2172C262.05 69.136 260.612 70.629 259.634 72.3516C258.656 74.1891 258.196 76.3711 258.196 78.9551ZM234.039 70.9161L222.535 72.1793C222.167 70.9262 221.535 69.7659 220.682 68.7757C219.829 67.7856 218.775 66.9883 217.589 66.4372C216.027 65.7721 214.339 65.4584 212.642 65.5184C209.996 65.5184 207.811 66.0926 206.028 67.2411C204.302 68.3895 203.382 69.825 203.382 71.6051C203.35 72.3279 203.49 73.0478 203.79 73.7064C204.09 74.365 204.541 74.9435 205.107 75.395C206.258 76.3711 208.271 77.175 210.974 77.8067L220.119 79.759C224.28 80.4187 228.18 82.2064 231.393 84.927C233.866 87.3387 235.131 90.4395 235.189 94.2293C235.189 97.445 234.154 100.546 232.198 103.13C230.106 105.826 227.324 107.909 224.146 109.159C220.377 110.646 216.349 111.369 212.297 111.284C206.733 111.556 201.217 110.134 196.48 107.207C194.537 105.907 192.893 104.212 191.653 102.233C190.414 100.254 189.609 98.0347 189.29 95.7223L201.599 94.459C202.174 96.8708 203.324 98.7083 205.165 99.9715C207.005 101.177 209.364 101.809 212.24 101.809C215.23 101.809 217.646 101.177 219.487 99.9715C221.327 98.7083 222.248 97.2153 222.248 95.3778C222.259 94.6523 222.104 93.9337 221.795 93.2769C221.486 92.6201 221.031 92.0425 220.465 91.5879C219.314 90.6118 217.474 89.8653 215 89.2911L205.855 87.3961C200.736 86.3051 196.94 84.525 194.467 81.9985C193.239 80.7081 192.285 79.1834 191.662 77.5157C191.04 75.8481 190.761 74.072 190.843 72.2942C190.843 69.0211 191.706 66.15 193.489 63.7383C195.329 61.3266 197.86 59.4317 201.139 58.111C204.748 56.708 208.597 56.0252 212.47 56.1012C218.739 56.1012 223.685 57.4219 227.309 60.1207C230.933 62.7622 233.176 66.3797 234.039 70.9161Z" fill="white"/>
</svg>
