<svg width="630" height="143" viewBox="0 0 630 143" fill="none" xmlns="http://www.w3.org/2000/svg">
<g clip-path="url(#clip0_4_19)">
<path d="M180.867 36.0048H179.367V37.5048V112.668H172.309V37.5048V36.0048H170.809H147.5V29.8411H203.953V36.0048H180.867Z" fill="white" stroke="white" stroke-width="3"/>
<mask id="path-2-inside-1_4_19" fill="white">
<path d="M253.283 52.9268L225.121 124.002C219.981 136.742 213.052 143 203.888 143C201.43 143 199.195 142.776 197.407 142.329V133.613C199.418 134.283 201.43 134.73 203.218 134.73C208.135 134.73 211.934 131.825 214.393 125.79L219.31 114.168L195.395 52.9268H206.347L222.886 100.087C223.11 100.757 223.557 102.322 224.227 104.78H224.674C224.898 103.886 225.345 102.322 225.792 100.31L243.225 52.9268H253.283ZM269.823 105.451H269.599V142.553H259.765V53.1503H269.599V63.8786H269.823C274.74 55.8324 281.669 51.5857 291.056 51.5857C298.879 51.5857 305.137 54.2678 309.607 59.8555C314.077 65.4432 316.312 72.5954 316.312 81.9827C316.312 92.264 313.854 100.534 308.936 106.568C304.019 112.603 297.091 115.732 288.374 115.732C280.328 115.732 274.293 112.38 269.823 105.451ZM269.599 80.6416V89.1349C269.599 94.2755 271.164 98.5222 274.516 102.098C277.869 105.674 281.892 107.462 287.033 107.462C293.067 107.462 297.538 105.227 301.114 100.534C304.69 95.8401 306.254 89.5819 306.254 81.5356C306.254 74.6069 304.69 69.4663 301.561 65.4432C298.432 61.6435 294.185 59.632 288.821 59.632C283.01 59.632 278.539 61.6435 274.963 65.6667C271.387 69.6898 269.599 74.6069 269.599 80.6416ZM376.882 86.0058H333.522C333.746 92.9345 335.534 98.0751 339.11 101.875C342.686 105.674 347.38 107.462 353.638 107.462C360.566 107.462 366.825 105.227 372.636 100.534V109.697C367.272 113.721 360.119 115.509 351.179 115.509C342.462 115.509 335.757 112.827 330.84 107.239C325.923 101.651 323.464 93.8285 323.464 83.7707C323.464 74.1599 326.146 66.5607 331.511 60.526C336.875 54.4913 343.58 51.5857 351.626 51.5857C359.672 51.5857 365.931 54.2678 370.177 59.4085C374.647 64.5491 376.659 71.7013 376.659 81.0886V86.0058H376.882ZM366.825 77.736C366.825 72.1484 365.484 67.6782 362.802 64.5491C360.119 61.42 356.32 59.8555 351.626 59.8555C346.933 59.8555 343.133 61.42 339.78 64.7726C336.651 68.1252 334.64 72.3719 333.746 77.736H366.825ZM382.247 111.262V104.557C388.505 108.58 394.539 110.368 401.021 110.368C407.726 110.368 412.867 109.027 416.22 106.121C419.796 103.439 421.36 99.4162 421.36 94.499C421.36 90.0289 420.243 86.6763 417.784 83.9942C415.549 81.3121 410.408 77.736 402.586 73.2659C393.869 68.1252 388.281 63.8786 386.046 60.526C383.811 57.1734 382.47 53.1503 382.47 48.6802C382.47 42.6455 384.929 37.5048 389.622 33.2582C394.316 29.0116 400.574 27 408.397 27C413.538 27 418.678 27.894 423.819 29.6821V35.9403C418.678 33.7052 413.314 32.5877 407.726 32.5877C401.915 32.5877 397.222 34.1522 393.869 37.0578C390.516 39.9634 388.728 43.763 388.728 48.2331C388.728 52.7033 389.846 56.0559 392.304 58.738C394.539 61.42 399.68 64.7726 407.503 69.2428C415.549 73.7129 420.913 77.736 423.595 81.3121C426.277 84.8882 427.618 88.9114 427.618 93.605C427.618 100.087 425.383 105.451 420.69 109.697C416.22 113.944 409.738 115.956 401.245 115.956C398.339 115.956 394.986 115.509 390.963 114.615C387.387 113.497 384.482 112.38 382.247 111.262ZM479.472 111.486C475.002 114.168 469.414 115.732 463.156 115.732C454.886 115.732 448.181 112.827 443.04 107.239C437.9 101.428 435.441 94.052 435.441 84.6647C435.441 74.8304 438.347 67.0077 444.158 60.7495C449.969 54.4913 457.345 51.3622 466.285 51.3622C470.979 51.3622 475.449 52.2563 479.919 54.2678V60.526C475.449 57.8439 470.755 56.5029 465.391 56.5029C458.239 56.5029 452.428 59.185 447.958 64.3256C443.487 69.4663 441.252 76.1715 441.252 84.4412C441.252 92.4875 443.264 98.7457 447.287 103.663C451.31 108.58 456.674 110.815 463.38 110.815C469.414 110.815 474.778 109.25 479.472 105.898V111.486ZM516.574 58.738C514.786 57.3969 512.551 56.7264 510.092 56.7264C505.175 56.7264 501.152 59.185 498.023 64.1021C494.67 69.0193 493.106 76.1715 493.106 85.3353V114.168H487.742V52.9268H493.106V66.5607H493.329C494.67 61.8671 496.906 58.2909 500.035 55.6089C503.164 52.9268 506.516 51.8092 510.539 51.8092C512.775 51.8092 514.786 52.2563 516.574 52.9268V58.738ZM525.961 37.5048C524.844 37.5048 523.726 37.0578 522.832 36.1638C521.938 35.2697 521.491 34.1522 521.491 32.8112C521.491 31.4701 521.938 30.3526 522.832 29.6821C523.726 28.7881 524.844 28.5645 525.961 28.5645C527.302 28.5645 528.196 29.0116 529.314 29.6821C530.208 30.5761 530.655 31.4701 530.655 32.8112C530.655 34.1522 530.208 35.2697 529.314 36.1638C528.196 37.0578 527.302 37.5048 525.961 37.5048ZM523.279 114.391V53.1503H528.867V114.391H523.279ZM548.089 103.439H547.865V142.553H542.277V53.1503H547.865V65.8902H548.089C550.324 61.42 553.453 57.8439 557.476 55.3854C561.499 52.9268 565.969 51.8092 570.886 51.8092C578.709 51.8092 584.744 54.4913 589.214 59.8555C593.684 65.2197 595.696 72.5954 595.696 81.7592C595.696 92.0405 593.237 100.31 588.096 106.568C583.179 112.827 576.474 115.956 568.204 115.956C559.264 115.732 552.559 111.709 548.089 103.439ZM547.865 80.6416V88.4644C547.865 94.7225 549.877 99.8632 553.676 104.333C557.476 108.803 562.617 111.039 568.875 111.039C575.133 111.039 580.274 108.356 584.073 102.992C587.873 97.6281 589.884 90.4759 589.884 81.7592C589.884 74.1599 588.096 67.9017 584.52 63.4316C580.944 58.9615 576.027 56.7264 570.216 56.7264C563.064 56.7264 557.476 59.185 553.676 63.8786C549.877 68.5723 547.865 74.1599 547.865 80.6416ZM629.892 113.497C626.986 114.838 624.304 115.509 621.846 115.509C612.682 115.509 608.212 110.145 608.212 99.1927V58.0674H597.26V52.9268H608.212V37.0578C609.106 36.8343 610 36.3873 610.894 36.1638C611.788 35.9403 612.682 35.4933 613.576 35.2697V53.1503H629.669V58.2909H613.576V98.7457C613.576 102.992 614.247 106.121 615.588 107.909C616.929 109.697 619.164 110.815 622.293 110.815C624.528 110.815 626.986 110.145 629.669 108.58V113.497H629.892Z"/>
</mask>
<path d="M253.283 52.9268L225.121 124.002C219.981 136.742 213.052 143 203.888 143C201.43 143 199.195 142.776 197.407 142.329V133.613C199.418 134.283 201.43 134.73 203.218 134.73C208.135 134.73 211.934 131.825 214.393 125.79L219.31 114.168L195.395 52.9268H206.347L222.886 100.087C223.11 100.757 223.557 102.322 224.227 104.78H224.674C224.898 103.886 225.345 102.322 225.792 100.31L243.225 52.9268H253.283ZM269.823 105.451H269.599V142.553H259.765V53.1503H269.599V63.8786H269.823C274.74 55.8324 281.669 51.5857 291.056 51.5857C298.879 51.5857 305.137 54.2678 309.607 59.8555C314.077 65.4432 316.312 72.5954 316.312 81.9827C316.312 92.264 313.854 100.534 308.936 106.568C304.019 112.603 297.091 115.732 288.374 115.732C280.328 115.732 274.293 112.38 269.823 105.451ZM269.599 80.6416V89.1349C269.599 94.2755 271.164 98.5222 274.516 102.098C277.869 105.674 281.892 107.462 287.033 107.462C293.067 107.462 297.538 105.227 301.114 100.534C304.69 95.8401 306.254 89.5819 306.254 81.5356C306.254 74.6069 304.69 69.4663 301.561 65.4432C298.432 61.6435 294.185 59.632 288.821 59.632C283.01 59.632 278.539 61.6435 274.963 65.6667C271.387 69.6898 269.599 74.6069 269.599 80.6416ZM376.882 86.0058H333.522C333.746 92.9345 335.534 98.0751 339.11 101.875C342.686 105.674 347.38 107.462 353.638 107.462C360.566 107.462 366.825 105.227 372.636 100.534V109.697C367.272 113.721 360.119 115.509 351.179 115.509C342.462 115.509 335.757 112.827 330.84 107.239C325.923 101.651 323.464 93.8285 323.464 83.7707C323.464 74.1599 326.146 66.5607 331.511 60.526C336.875 54.4913 343.58 51.5857 351.626 51.5857C359.672 51.5857 365.931 54.2678 370.177 59.4085C374.647 64.5491 376.659 71.7013 376.659 81.0886V86.0058H376.882ZM366.825 77.736C366.825 72.1484 365.484 67.6782 362.802 64.5491C360.119 61.42 356.32 59.8555 351.626 59.8555C346.933 59.8555 343.133 61.42 339.78 64.7726C336.651 68.1252 334.64 72.3719 333.746 77.736H366.825ZM382.247 111.262V104.557C388.505 108.58 394.539 110.368 401.021 110.368C407.726 110.368 412.867 109.027 416.22 106.121C419.796 103.439 421.36 99.4162 421.36 94.499C421.36 90.0289 420.243 86.6763 417.784 83.9942C415.549 81.3121 410.408 77.736 402.586 73.2659C393.869 68.1252 388.281 63.8786 386.046 60.526C383.811 57.1734 382.47 53.1503 382.47 48.6802C382.47 42.6455 384.929 37.5048 389.622 33.2582C394.316 29.0116 400.574 27 408.397 27C413.538 27 418.678 27.894 423.819 29.6821V35.9403C418.678 33.7052 413.314 32.5877 407.726 32.5877C401.915 32.5877 397.222 34.1522 393.869 37.0578C390.516 39.9634 388.728 43.763 388.728 48.2331C388.728 52.7033 389.846 56.0559 392.304 58.738C394.539 61.42 399.68 64.7726 407.503 69.2428C415.549 73.7129 420.913 77.736 423.595 81.3121C426.277 84.8882 427.618 88.9114 427.618 93.605C427.618 100.087 425.383 105.451 420.69 109.697C416.22 113.944 409.738 115.956 401.245 115.956C398.339 115.956 394.986 115.509 390.963 114.615C387.387 113.497 384.482 112.38 382.247 111.262ZM479.472 111.486C475.002 114.168 469.414 115.732 463.156 115.732C454.886 115.732 448.181 112.827 443.04 107.239C437.9 101.428 435.441 94.052 435.441 84.6647C435.441 74.8304 438.347 67.0077 444.158 60.7495C449.969 54.4913 457.345 51.3622 466.285 51.3622C470.979 51.3622 475.449 52.2563 479.919 54.2678V60.526C475.449 57.8439 470.755 56.5029 465.391 56.5029C458.239 56.5029 452.428 59.185 447.958 64.3256C443.487 69.4663 441.252 76.1715 441.252 84.4412C441.252 92.4875 443.264 98.7457 447.287 103.663C451.31 108.58 456.674 110.815 463.38 110.815C469.414 110.815 474.778 109.25 479.472 105.898V111.486ZM516.574 58.738C514.786 57.3969 512.551 56.7264 510.092 56.7264C505.175 56.7264 501.152 59.185 498.023 64.1021C494.67 69.0193 493.106 76.1715 493.106 85.3353V114.168H487.742V52.9268H493.106V66.5607H493.329C494.67 61.8671 496.906 58.2909 500.035 55.6089C503.164 52.9268 506.516 51.8092 510.539 51.8092C512.775 51.8092 514.786 52.2563 516.574 52.9268V58.738ZM525.961 37.5048C524.844 37.5048 523.726 37.0578 522.832 36.1638C521.938 35.2697 521.491 34.1522 521.491 32.8112C521.491 31.4701 521.938 30.3526 522.832 29.6821C523.726 28.7881 524.844 28.5645 525.961 28.5645C527.302 28.5645 528.196 29.0116 529.314 29.6821C530.208 30.5761 530.655 31.4701 530.655 32.8112C530.655 34.1522 530.208 35.2697 529.314 36.1638C528.196 37.0578 527.302 37.5048 525.961 37.5048ZM523.279 114.391V53.1503H528.867V114.391H523.279ZM548.089 103.439H547.865V142.553H542.277V53.1503H547.865V65.8902H548.089C550.324 61.42 553.453 57.8439 557.476 55.3854C561.499 52.9268 565.969 51.8092 570.886 51.8092C578.709 51.8092 584.744 54.4913 589.214 59.8555C593.684 65.2197 595.696 72.5954 595.696 81.7592C595.696 92.0405 593.237 100.31 588.096 106.568C583.179 112.827 576.474 115.956 568.204 115.956C559.264 115.732 552.559 111.709 548.089 103.439ZM547.865 80.6416V88.4644C547.865 94.7225 549.877 99.8632 553.676 104.333C557.476 108.803 562.617 111.039 568.875 111.039C575.133 111.039 580.274 108.356 584.073 102.992C587.873 97.6281 589.884 90.4759 589.884 81.7592C589.884 74.1599 588.096 67.9017 584.52 63.4316C580.944 58.9615 576.027 56.7264 570.216 56.7264C563.064 56.7264 557.476 59.185 553.676 63.8786C549.877 68.5723 547.865 74.1599 547.865 80.6416ZM629.892 113.497C626.986 114.838 624.304 115.509 621.846 115.509C612.682 115.509 608.212 110.145 608.212 99.1927V58.0674H597.26V52.9268H608.212V37.0578C609.106 36.8343 610 36.3873 610.894 36.1638C611.788 35.9403 612.682 35.4933 613.576 35.2697V53.1503H629.669V58.2909H613.576V98.7457C613.576 102.992 614.247 106.121 615.588 107.909C616.929 109.697 619.164 110.815 622.293 110.815C624.528 110.815 626.986 110.145 629.669 108.58V113.497H629.892Z" fill="white" stroke="white" stroke-width="8.52727" mask="url(#path-2-inside-1_4_19)"/>
<g clip-path="url(#clip1_4_19)">
<path d="M6 0C2.67733 0 0 2.67733 0 6V122C0 125.323 2.67733 128 6 128H122C125.323 128 128 125.323 128 122V6C128 2.67733 125.323 0 122 0H6ZM98.6027 52C101.867 52 104.757 52.1973 107.28 52.592C109.659 52.9485 111.994 53.5563 114.245 54.4053V67.5147C113.165 66.7674 112.017 66.1228 110.816 65.5893C109.578 65.0322 108.3 64.5687 106.992 64.2027C104.515 63.5125 101.958 63.1538 99.3867 63.136C97.7867 63.136 96.3307 63.2853 95.0187 63.5947C93.8493 63.8448 92.7276 64.2805 91.696 64.8853C90.7893 65.44 90.096 66.1067 89.6 66.88C89.1011 67.6595 88.8415 68.568 88.8533 69.4933C88.8533 70.5387 89.136 71.4827 89.6853 72.3147C90.24 73.1467 91.0293 73.936 92.048 74.6827C93.0667 75.4293 94.304 76.1547 95.76 76.8693C97.216 77.5893 98.864 78.3307 100.699 79.088C103.205 80.1387 105.456 81.2587 107.451 82.4373C109.445 83.6213 111.157 84.96 112.587 86.4533C114.016 87.9413 115.104 89.6427 115.861 91.5573C116.619 93.472 117.003 95.696 117.003 98.24C117.003 101.744 116.336 104.693 115.013 107.072C113.721 109.418 111.866 111.406 109.616 112.859C107.19 114.397 104.502 115.474 101.685 116.037C98.6667 116.677 95.4827 116.997 92.1387 116.997C88.8475 117.012 85.5621 116.719 82.3253 116.123C79.5249 115.638 76.809 114.753 74.2613 113.493V99.4667C79.0815 103.569 85.1961 105.835 91.5253 105.867C93.3013 105.867 94.8533 105.707 96.176 105.387C97.504 105.067 98.608 104.619 99.4987 104.053C100.384 103.477 101.045 102.805 101.488 102.027C101.977 101.12 102.2 100.093 102.13 99.0656C102.06 98.0378 101.701 97.0508 101.093 96.2187C100.301 95.1701 99.3317 94.2677 98.2293 93.552C96.8622 92.6458 95.4226 91.8537 93.9253 91.184C92.1506 90.3735 90.3601 89.5983 88.5547 88.8587C83.6587 86.816 80.0107 84.3147 77.6053 81.3653C75.2053 78.416 74 74.848 74 70.672C74 67.3973 74.656 64.5867 75.968 62.2347C77.28 59.8827 79.0613 57.9467 81.3227 56.4267C83.7145 54.8488 86.3698 53.7126 89.1627 53.072C92.2559 52.3427 95.4247 51.9829 98.6027 52ZM18 53.0027H69.0027V64.5547H50.6987V116H36.208V64.5547H18V53.0027Z" fill="white"/>
</g>
</g>
<defs>
<clipPath id="clip0_4_19">
<rect width="630" height="143" fill="white"/>
</clipPath>
<clipPath id="clip1_4_19">
<rect width="128" height="128" fill="white"/>
</clipPath>
</defs>
</svg>
