<svg width="482" height="140" viewBox="0 0 482 140" fill="none" xmlns="http://www.w3.org/2000/svg">
<g clip-path="url(#clip0_1_63)">
<path d="M69.9677 91.875C82.0433 91.875 91.8325 82.0812 91.8325 70C91.8325 57.9188 82.0433 48.125 69.9677 48.125C57.892 48.125 48.1028 57.9188 48.1028 70C48.1028 82.0812 57.892 91.875 69.9677 91.875Z" fill="white"/>
<path d="M109.363 121.793C111.223 123.654 111.036 126.735 108.85 128.2C97.7294 135.653 84.3531 139.999 69.9623 139.999C55.5713 139.999 42.1951 135.653 31.0738 128.2C28.8881 126.735 28.7012 123.654 30.5615 121.793L46.5401 105.807C47.9843 104.362 50.2246 104.134 52.0423 105.065C57.4171 107.82 63.5082 109.374 69.9623 109.374C76.4163 109.374 82.5075 107.82 87.8826 105.065C89.7002 104.134 91.9399 104.362 93.3844 105.807L109.363 121.793Z" fill="white"/>
<path d="M108.856 11.7994C111.042 13.2641 111.228 16.3454 109.368 18.2065L93.3898 34.1926C91.9454 35.6374 89.7049 35.8656 87.8873 34.934C82.5122 32.1792 76.4214 30.625 69.9674 30.625C48.2313 30.625 30.6107 48.2538 30.6107 70C30.6107 76.457 32.1642 82.551 34.9177 87.9286C35.8489 89.747 35.6208 91.9878 34.1767 93.4329L18.1981 109.419C16.3378 111.28 13.258 111.093 11.7938 108.907C4.34466 97.7799 0 84.3974 0 70C0 31.3401 31.3255 0 69.9674 0C84.3586 0 97.7348 4.34669 108.856 11.7994Z" fill="white"/>
<path fill-rule="evenodd" clip-rule="evenodd" d="M228.488 14.2188C228.488 13.6147 228.977 13.125 229.581 13.125H245.98C246.583 13.125 247.073 13.6147 247.073 14.2188V125.781C247.073 126.385 246.583 126.875 245.98 126.875H229.581C228.977 126.875 228.488 126.385 228.488 125.781V14.2188ZM205.345 103.212C204.91 102.835 204.258 102.863 203.84 103.259C201.284 105.672 198.291 107.603 195.01 108.95C191.412 110.428 187.544 111.172 183.642 111.137C180.347 111.235 177.067 110.671 174.003 109.48C170.939 108.289 168.156 106.497 165.826 104.214C161.594 99.8908 159.158 93.7191 159.158 86.3621C159.158 71.6341 168.952 61.5604 183.642 61.5604C187.583 61.5061 191.486 62.3045 195.075 63.8978C198.328 65.3428 201.25 67.4087 203.67 69.9711C204.083 70.4094 204.771 70.4601 205.227 70.0655L216.298 60.4816C216.75 60.09 216.804 59.4064 216.406 58.9606C208.079 49.6508 195.033 44.8438 182.627 44.8438C157.647 44.8438 139.935 61.701 139.935 86.5021C139.935 98.7684 144.337 109.097 151.761 116.391C159.184 123.685 169.76 127.969 181.962 127.969C197.263 127.969 209.578 122.099 216.798 114.568C217.222 114.126 217.175 113.423 216.712 113.023L205.345 103.212ZM337.408 91.8213C337.346 92.3689 336.881 92.7788 336.329 92.7788H278.884C278.186 92.7788 277.666 93.4267 277.848 94.1002C280.706 104.7 289.227 111.113 300.857 111.113C304.778 111.196 308.664 110.388 312.215 108.754C315.525 107.232 318.461 105.03 320.827 102.3C321.113 101.97 321.611 101.921 321.946 102.201L333.496 112.261C333.938 112.646 334 113.312 333.62 113.759C326.648 121.989 315.35 127.969 299.847 127.969C275.996 127.969 258.005 111.445 258.005 86.3403C258.005 74.0236 262.244 63.6956 269.307 56.4028C273.037 52.6527 277.507 49.6931 282.442 47.7064C287.378 45.7198 292.674 44.748 298.006 44.8512C322.18 44.8512 337.812 61.86 337.812 85.3455C337.782 87.5093 337.646 89.6708 337.408 91.8213ZM278.193 76.5791C277.99 77.2542 278.511 77.9116 279.216 77.9116H317.413C318.118 77.9116 318.64 77.2502 318.444 76.5715C315.841 67.5571 309.236 61.5412 298.978 61.5412C295.96 61.4455 292.958 61.9919 290.175 63.1425C287.393 64.2937 284.895 66.0221 282.853 68.2093C280.707 70.6442 279.12 73.4991 278.193 76.5791ZM394.648 44.8558C395.257 44.8492 395.754 45.3407 395.754 45.9495V64.3184C395.754 64.9549 395.213 65.4567 394.578 65.4096C392.806 65.2782 391.131 65.1666 390.032 65.1666C375.728 65.1666 367.33 75.239 367.33 88.4605V125.781C367.33 126.385 366.84 126.875 366.236 126.875H349.838C349.234 126.875 348.744 126.385 348.744 125.781V47.085C348.744 46.481 349.234 45.9913 349.838 45.9913H366.236C366.84 45.9913 367.33 46.481 367.33 47.085V58.1306C367.33 58.193 367.38 58.2435 367.443 58.2435C367.478 58.2435 367.512 58.2265 367.533 58.1981C373.943 49.6336 383.405 44.8694 393.4 44.8694L394.648 44.8558ZM439.069 92.9639C439.136 92.8916 439.23 92.8511 439.329 92.8511C439.451 92.8511 439.565 92.9141 439.629 93.0183L460.364 126.359C460.563 126.68 460.915 126.875 461.293 126.875H479.934C480.791 126.875 481.314 125.934 480.863 125.205L452.417 79.2859C452.16 78.8713 452.208 78.337 452.536 77.9753L479.944 47.7223C480.58 47.0193 480.082 45.894 479.134 45.894H459.686C459.38 45.894 459.088 46.0226 458.88 46.2484L427.17 80.8305C426.496 81.5655 425.271 81.0888 425.271 80.0909V14.2187C425.271 13.6147 424.782 13.125 424.178 13.125H407.78C407.176 13.125 406.686 13.6147 406.686 14.2187V125.781C406.686 126.385 407.176 126.875 407.78 126.875H424.178C424.782 126.875 425.271 126.385 425.271 125.781V108.225C425.271 107.949 425.376 107.683 425.564 107.48L439.069 92.9639Z" fill="white"/>
</g>
<defs>
<clipPath id="clip0_1_63">
<rect width="482" height="140" fill="white"/>
</clipPath>
</defs>
</svg>
