<svg width="813" height="162" viewBox="0 0 813 162" fill="none" xmlns="http://www.w3.org/2000/svg">
<g clip-path="url(#clip0_1_45)">
<path d="M84.3577 127.894C114.717 127.894 138.182 104.99 138.182 76.7369C138.182 50.2676 116.137 34.1056 101.536 34.1056C81.2035 34.1056 64.9064 48.354 62.5845 69.5064C62.1545 73.4232 59.0464 76.7083 55.1024 76.6799C48.5455 76.6331 39.0133 76.5774 32.9792 76.5982C30.3814 76.607 28.2335 74.5018 28.362 71.9095C29.2726 53.5645 35.4149 36.4115 47.1279 23.2352C60.143 8.59382 79.0967 0 101.536 0C139.237 0 174.828 34.2086 174.828 76.7369C174.828 123.826 135.758 162 85.1602 162C49.0756 162 12.7328 138.451 0.0442222 105.528C-0.0028496 105.406 -0.0104571 105.278 0.0124844 105.146C0.181277 104.172 0.516841 103.282 0.847294 102.406C1.32776 101.132 1.79741 99.8864 1.72882 98.4509L1.50951 93.8648C1.40146 91.6024 2.68144 89.4987 4.75189 88.5363L6.58614 87.6835C8.67762 86.7113 10.1643 84.7964 10.5758 82.5453C11.1906 79.1821 14.1473 76.7369 17.5984 76.7369C22.9873 76.7369 27.6738 80.3155 29.4343 85.4039C37.9071 109.894 51.3767 127.894 84.3577 127.894Z" fill="white"/>
<path d="M755.478 56.585C748.754 56.585 746.686 52.5808 746.686 48.0603C746.686 43.2814 748.366 39.5355 755.478 39.5355C762.588 39.5355 764.268 43.2814 764.268 48.0603C764.268 52.5808 762.459 56.585 755.478 56.585Z" fill="white"/>
<path d="M632.755 112.031V78.8367L623.299 78.7904V74.9257C623.299 70.7172 626.725 67.3112 630.938 67.3319L632.755 67.3411V53.2621L647.881 48.9999V67.3411H661.586V71.243C661.586 75.4368 658.184 78.8367 653.985 78.8367H647.881V110.094C647.881 114.905 650.61 116.596 654.127 117.177C658.27 117.861 661.716 120.856 661.716 125.05V130.76C647.392 130.76 632.755 130.129 632.755 112.031Z" fill="white"/>
<path fill-rule="evenodd" clip-rule="evenodd" d="M334.338 65.9102C319.211 65.5224 300.593 75.0804 300.593 98.9757C300.593 122.483 319.211 131.783 334.338 131.396C349.852 131.783 368.341 122.483 368.341 98.9757C368.341 75.0804 349.852 65.5224 334.338 65.9102ZM334.45 119.663C323.46 119.663 315.663 111.664 315.663 98.4897C315.663 85.9607 323.465 77.7068 334.455 77.7068C345.444 77.7068 353.159 85.9438 353.159 98.4725C353.159 111.647 345.439 119.663 334.45 119.663Z" fill="white"/>
<path d="M408.076 66.052C421.263 66.052 434.968 69.6684 434.968 95.5008V130.117H426.537C422.339 130.117 418.936 126.717 418.936 122.523V94.2094C418.936 81.9386 414.411 77.289 406.524 77.289C402.128 77.289 396.44 80.6472 393.724 83.3597V122.523C393.724 126.717 390.322 130.117 386.123 130.117H378.468V67.6016H386.998C390.027 67.6016 392.655 69.6904 393.336 72.6391C397.215 68.3767 402.258 66.052 408.076 66.052Z" fill="white"/>
<path d="M452.257 67.4912C455.47 67.4912 458.336 69.5091 459.416 72.5319L473.259 111.278L487.101 72.5325C488.181 69.5091 491.047 67.4912 494.259 67.4912H505.192L482.647 125.175C481.507 128.088 478.697 130.006 475.566 130.006H465.889L441.324 67.4912H452.257Z" fill="white"/>
<path fill-rule="evenodd" clip-rule="evenodd" d="M564.966 126.969C560.183 128.906 550.478 131.487 540.394 131.487C522.681 131.487 509.115 121.284 509.115 98.2932C509.115 77.6271 522.265 66.5774 538.299 66.5774C558.085 66.5774 566.527 79.8457 565.645 97.9087C565.463 101.641 562.212 104.363 558.472 104.363H524.363C525.138 114.438 532.506 119.733 542.203 119.733C546.011 119.733 550.015 119.54 554.811 118.645C559.899 117.695 564.966 121.312 564.966 126.482V126.969ZM551.953 93.7716C552.992 83.8856 546.313 78.4606 538.299 78.4606C530.282 78.4606 524.877 84.4721 524.363 93.7716H551.953Z" fill="white"/>
<path d="M585.794 67.621C588.682 67.621 591.198 69.5952 591.88 72.4C597.051 68.525 603.517 66.0712 608.04 66.0712C608.43 66.0712 610.886 66.0712 614.765 66.5878V73.2905C614.765 76.8938 611.648 79.6329 608.04 79.6329C603.905 79.6329 597.827 81.1833 593.043 83.8955V130.136H577.658V67.621H585.794Z" fill="white"/>
<path d="M763.235 122.356V67.4348H755.58C751.382 67.4348 747.979 70.8345 747.979 75.0286V129.95H755.633C759.832 129.95 763.235 126.55 763.235 122.356Z" fill="white"/>
<path d="M784.039 112.163V78.9679H773.826V75.066C773.826 70.8722 777.229 67.4723 781.427 67.4723H784.039V53.3938L799.166 49.1313V67.4723H812.871V71.3742C812.871 75.5682 809.468 78.9679 805.27 78.9679H799.166V110.226C799.166 115.037 801.897 116.727 805.414 117.308C809.554 117.993 813 120.988 813 125.181V130.891C798.677 130.891 784.039 130.26 784.039 112.163Z" fill="white"/>
<path d="M224.996 86.0617C225.092 56.8325 247.156 40.4993 268.329 40.4993C280.089 40.4993 290.873 43.0305 299.741 49.3586L296.153 54.2763C293.753 57.5658 289.203 58.8731 285.414 57.3764C280.064 55.2632 275.026 54.817 271.273 54.817C253.949 54.817 240.883 65.9375 240.79 86.0609C240.883 106.184 253.949 117.465 271.273 117.465C275.026 117.465 280.064 117.019 285.414 114.906C289.203 113.409 293.753 114.558 296.153 117.847L299.741 122.765C290.873 129.093 280.089 131.624 268.329 131.624C247.156 131.624 225.092 115.291 224.996 86.0617Z" fill="white"/>
<path d="M680.473 40.9563C684.671 40.9563 688.074 44.3561 688.074 48.55V83.3649L719.188 44.3067C720.62 42.3644 722.893 41.218 725.307 41.218H739.129L703.95 85.5927L739.129 129.95H725.307C722.893 129.95 720.62 128.804 719.188 126.861L688.074 87.8138V122.356C688.074 126.55 684.671 129.95 680.473 129.95H672.428V40.9563H680.473Z" fill="white"/>
</g>
<defs>
<clipPath id="clip0_1_45">
<rect width="813" height="162" fill="white"/>
</clipPath>
</defs>
</svg>
