<svg width="984" height="130" viewBox="0 0 984 130" fill="none" xmlns="http://www.w3.org/2000/svg">
<g clip-path="url(#clip0_1_77)">
<path fill-rule="evenodd" clip-rule="evenodd" d="M197.657 64.3231H226.915C224.967 56.888 219.629 53.8734 213.128 53.8734C205.98 53.8734 200.252 57.7706 197.657 64.3231ZM244.08 77.0375H196.619C198.567 86.6139 206.626 90.1425 213.647 90.1425C222.489 90.1425 226.269 84.851 226.269 84.851H242.65C237.706 97.4429 225.877 104.365 213.128 104.365C195.571 104.365 180.228 91.3937 180.228 71.7558C180.228 52.2322 195.444 40.1422 212.609 40.1422C229.255 40.1422 246.166 51.3491 244.08 77.0375Z" fill="white"/>
<path fill-rule="evenodd" clip-rule="evenodd" d="M405.309 72.2582C405.309 62.4344 399.326 54.7541 389.446 54.7541C379.557 54.7541 372.927 62.4344 372.927 72.2582C372.927 82.082 379.557 89.7618 389.446 89.7618C399.326 89.7618 405.309 82.082 405.309 72.2582ZM355.89 72.3803C355.89 52.2321 372.017 40.1422 389.446 40.1422C407.003 40.1422 422.346 52.3547 422.346 72.1245C422.346 92.1514 406.473 104.364 388.918 104.364C371.233 104.364 355.89 92.1514 355.89 72.3803Z" fill="white"/>
<path fill-rule="evenodd" clip-rule="evenodd" d="M491.958 69.6136V103.74H474.655V73.3869C474.655 71.2442 476.224 55.3795 463.739 54.7555C457.619 54.3758 446.7 57.6457 446.7 74.146V103.74H429.537V40.7678H445.293L445.344 49.5096C445.344 49.5096 452.449 40.1422 465.697 40.1422C482.471 40.1422 491.958 52.2322 491.958 69.6136Z" fill="white"/>
<path fill-rule="evenodd" clip-rule="evenodd" d="M555.208 53.4932C549.745 53.4932 547.401 56.1386 547.401 58.7846C547.401 63.0611 553.259 64.3222 557.157 65.0813C568.738 67.4695 580.439 70.8746 580.439 84.2145C580.439 97.1871 569.388 104.365 555.992 104.365C541.038 104.365 529.466 95.5565 528.682 82.2055H544.672C545.062 85.9788 547.666 90.8904 555.598 90.8904C562.226 90.8904 563.795 87.497 563.795 84.851C563.795 80.1854 559.242 78.8004 554.814 77.7953C547.15 76.1549 530.631 73.1408 530.631 58.7846C530.631 46.4388 542.862 40.1422 555.473 40.1422C570.033 40.1422 579.655 48.705 580.439 59.2865H564.44C563.92 57.1438 561.845 53.4932 555.208 53.4932Z" fill="white"/>
<path fill-rule="evenodd" clip-rule="evenodd" d="M633.014 72.2582C633.014 61.7992 627.161 55.6358 618.709 55.6358C610.776 55.6358 602.835 61.1734 602.835 72.2582C602.835 83.3333 610.776 88.8805 618.709 88.8805C627.161 88.8805 633.014 82.7079 633.014 72.2582ZM649.268 40.7678V128.923H633.014V97.5655C628.855 102.098 622.997 104.364 616.23 104.364C599.725 104.364 585.935 91.2702 585.935 72.2577C585.935 53.2359 599.725 40.1422 616.23 40.1422C629.208 40.1422 634.067 48.5759 634.067 48.5759L634.044 40.7678H649.268Z" fill="white"/>
<path fill-rule="evenodd" clip-rule="evenodd" d="M742.201 64.3231H771.456C769.507 56.888 764.169 53.8734 757.671 53.8734C750.523 53.8734 744.795 57.7706 742.201 64.3231ZM788.62 77.0375H741.152C743.11 86.6139 751.168 90.1425 758.186 90.1425C767.028 90.1425 770.811 84.851 770.811 84.851H787.191C782.248 97.4429 770.416 104.365 757.671 104.365C740.112 104.365 724.772 91.3937 724.772 71.7558C724.772 52.2322 739.987 40.1422 757.151 40.1422C773.795 40.1422 790.709 51.3491 788.62 77.0375Z" fill="white"/>
<path fill-rule="evenodd" clip-rule="evenodd" d="M811.294 64.3231H840.549C838.6 56.888 833.262 53.8734 826.764 53.8734C819.616 53.8734 813.889 57.7706 811.294 64.3231ZM857.714 77.0375H810.254C812.204 86.6139 820.261 90.1425 827.279 90.1425C836.126 90.1425 839.904 84.851 839.904 84.851H856.284C851.341 97.4429 839.51 104.365 826.764 104.365C809.205 104.365 793.865 91.3937 793.865 71.7558C793.865 52.2322 809.08 40.1422 826.244 40.1422C842.889 40.1422 859.803 51.3491 857.714 77.0375Z" fill="white"/>
<path fill-rule="evenodd" clip-rule="evenodd" d="M915.617 89.6392V103.738H860.35V95.4233L891.694 54.8777H861.655V40.7678H914.322V49.0829L882.978 89.6392H915.617Z" fill="white"/>
<path fill-rule="evenodd" clip-rule="evenodd" d="M983.281 40.7678V96.1819V97.4429C983.281 114.445 974.299 129.56 952.062 129.56C931.254 129.56 919.947 116.331 919.947 106.386H936.202C936.202 106.386 938.666 114.824 951.542 114.824C962.473 114.824 967.026 108.774 967.026 99.9649V97.3194C964.153 100.468 958.704 104.365 948.947 104.365C931.913 104.365 921.247 92.4087 921.247 74.9037L921.112 40.7678H938.021V71.1207C938.021 79.6821 941.145 89.7631 951.936 89.7631C957.525 89.7631 966.761 87.1172 966.761 70.3616V40.7678H983.281Z" fill="white"/>
<path fill-rule="evenodd" clip-rule="evenodd" d="M167.849 84.8357C167.849 88.7626 169.396 90.3825 172.265 90.3825C174.287 90.3825 175.601 90.1476 177.516 89.5728L178.587 102.514C175.007 103.662 171.546 104.359 167.129 104.359C156.996 104.359 150.791 101.129 150.791 87.1432V15.5835H167.849V84.8357Z" fill="white"/>
<path fill-rule="evenodd" clip-rule="evenodd" d="M348.551 69.6136V103.74H331.248V73.3869C331.248 64.7015 332.16 53.7406 320.194 54.7555C317.081 55.0016 308.493 56.3847 308.493 74.146V103.74H291.328V73.3869C291.328 64.7015 292.238 53.7406 280.273 54.7555C277.149 55.0016 268.573 56.3847 268.573 74.146V103.74H251.407V40.7678H267.165L267.18 49.5096C267.18 49.5096 273.202 40.1421 284.434 40.1421C297.969 40.1421 303.282 50.3397 303.282 50.3397C303.282 50.3397 309.109 40.0197 323.974 40.0197C340.875 40.0197 348.551 52.1096 348.551 69.6136Z" fill="white"/>
<path fill-rule="evenodd" clip-rule="evenodd" d="M656.565 74.8939V40.7678H673.868V71.1207C673.868 73.2629 672.299 89.1275 684.785 89.752C690.903 90.1318 701.819 86.8614 701.819 70.3616V40.7678H718.988V103.74H703.249L703.179 94.998C703.179 94.998 696.073 104.365 682.826 104.365C666.052 104.365 656.565 92.2754 656.565 74.8939Z" fill="white"/>
<path fill-rule="evenodd" clip-rule="evenodd" d="M32.158 79.7903L67.022 95.9135C71.3428 97.9127 74.3932 101.268 76.0405 105.117C80.2067 114.864 74.5125 124.832 65.5734 128.417C56.6334 132.001 47.1048 129.694 42.7726 119.559L27.5999 83.9735C26.4241 81.2152 29.3777 78.5047 32.158 79.7903Z" fill="white"/>
<path fill-rule="evenodd" clip-rule="evenodd" d="M34.2522 69.3531L70.2409 55.7449C82.2011 51.2223 95.267 59.7795 95.0906 72.2131C95.0878 72.3756 95.085 72.5376 95.0809 72.7015C94.8223 84.8092 82.1204 92.9472 70.4224 88.6637L34.2863 75.4338C31.4037 74.379 31.3824 70.4381 34.2522 69.3531Z" fill="white"/>
<path fill-rule="evenodd" clip-rule="evenodd" d="M32.2348 64.6397L67.6129 49.6029C79.3689 44.6056 82.3524 29.6073 73.1451 20.9413C73.0244 20.8272 72.9037 20.7144 72.7817 20.6017C63.7544 12.2203 48.8319 15.1713 43.6928 26.2107L27.8172 60.3177C26.5505 63.0375 29.4133 65.8385 32.2348 64.6397Z" fill="white"/>
<path fill-rule="evenodd" clip-rule="evenodd" d="M23.1309 58.6978L35.9933 23.4193C37.588 19.045 37.2926 14.5841 35.644 10.7352C31.4692 0.992551 20.1631 -2.15233 11.2256 1.43808C2.28958 5.02989 -2.75994 13.1871 1.581 23.3189L16.8531 58.8654C18.0374 61.62 22.1057 61.5114 23.1309 58.6978Z" fill="white"/>
</g>
<defs>
<clipPath id="clip0_1_77">
<rect width="984" height="130" fill="white"/>
</clipPath>
</defs>
</svg>
