<svg width="707" height="162" viewBox="0 0 707 162" fill="none" xmlns="http://www.w3.org/2000/svg">
<path d="M62.328 0.616707C14.5007 5.68316 -14.0741 57.1583 7.0699 100.189C16.3922 119.172 32.3346 131.939 53.6137 137.478C59.2205 138.897 62.1253 139.167 74.6226 139.505C98.4011 140.113 109.885 138.357 122.45 132.007C159.806 113.227 172.439 66.0752 149.403 31.4883C137.784 13.9921 119.14 2.77839 97.9282 0.549154C90.7676 -0.193925 69.7588 -0.193925 62.328 0.616707ZM75.2981 8.65548C90.8352 10.2767 103.535 16.4916 114.208 27.7729C124.882 38.9866 130.691 53.4429 130.691 68.9124C130.691 79.3156 128.327 86.5437 122.382 94.3122C117.518 100.73 107.723 106.877 100.157 108.296C97.7931 108.769 97.7931 108.701 103.332 103.094C112.452 93.8394 117.181 82.4905 117.181 69.7906C117.181 53.1727 109.277 38.8515 95.1586 29.5968C81.3103 20.5447 62.9359 19.7341 47.6015 27.3676C43.8185 29.259 40.9813 31.4207 36.3877 36.0143C31.1186 41.2159 29.7676 43.0398 27.0655 48.5115C23.3501 56.145 21.9315 62.0896 21.9315 70.6688C21.9315 92.3532 33.3479 114.308 51.2493 126.602C54.6945 129.034 54.6945 129.034 52.3977 128.629C51.1142 128.426 47.7366 127.21 44.9669 125.994C22.7421 116.402 8.3534 94.3122 8.28584 69.7906C8.21829 53.4429 13.6225 39.7297 24.9038 27.7729C35.1718 16.8969 48.5472 10.2767 63.4764 8.65548C66.1109 8.38527 68.2726 8.11506 68.2726 8.04751C68.3402 8.04751 71.5151 8.31772 75.2981 8.65548ZM117.046 14.1272C133.866 21.8958 146.161 36.6898 151.025 54.929C152.916 61.9545 153.119 76.2757 151.43 83.0985C146.093 104.783 131.502 120.928 110.898 127.953C104.211 130.25 98.874 131.061 90.8352 130.993C67.5295 130.926 47.0611 118.361 36.8606 97.8925C28.6867 81.6123 27.8086 65.2646 34.2261 51.9567C37.5361 45.2015 45.1696 37.8382 52.3977 34.393C55.5051 32.9069 59.2205 31.4883 60.5716 31.2181L63.071 30.8127L57.8695 36.1494C51.7222 42.4318 48.885 47.0254 46.0478 55.0641C44.1563 60.4684 43.9536 61.8194 43.9536 69.4529C43.8861 79.0453 45.1696 84.382 49.493 92.7585C53.2759 100.054 61.7875 108.228 69.6912 112.146C78.2028 116.402 84.2826 117.685 93.8075 117.213C101.981 116.807 107.25 115.456 113.938 111.876C122.112 107.553 129.746 99.6489 134.069 91.0697C142.716 73.9113 140.081 50.2679 127.381 30.9479C124.139 25.949 115.289 16.8294 110.696 13.6544C108.669 12.3033 107.048 11.0198 107.048 10.8847C107.048 10.1416 111.979 11.7629 117.046 14.1272ZM87.4576 34.5957C102.657 41.9589 111.777 61.0088 108.196 77.9645C105.697 89.7862 97.4554 100.189 86.5118 105.323C79.9592 108.363 80.1619 108.363 72.9337 104.715C60.6392 98.5681 51.6546 83.8416 51.6546 69.7906C51.6546 54.1184 61.72 39.3244 76.514 33.2446C80.7698 31.4883 81.1752 31.5558 87.4576 34.5957Z" fill="white"/>
<path d="M201.622 17.7076V23.3144L205.269 23.7197C210.336 24.1926 214.321 26.4218 215.537 29.3266C216.348 31.2856 216.483 37.8382 216.348 70.4662L216.145 109.309L214.119 111.336C212.092 113.295 205.675 116.064 202.973 116.064C201.757 116.064 201.622 116.47 201.622 121.806V127.548H251.543H301.397L301.87 117.213C302.072 111.606 302.478 104.715 302.748 102.013L303.153 97.1495H297.276C293.628 97.1495 291.467 97.4197 291.467 97.8925C291.467 99.7165 286.67 108.701 284.306 111.336C279.983 116.064 277.888 116.74 265.932 116.74C254.921 116.74 251.678 116.064 250.327 113.497C249.787 112.551 249.584 99.3787 249.584 71.6821C249.584 34.5957 249.651 31.083 250.8 28.9213C252.218 26.0165 255.664 24.2602 260.73 23.7197L264.445 23.3144V17.7076V12.0331H233.034H201.622V17.7076Z" fill="white"/>
<path d="M349.427 37.4329C331.052 40.743 316.934 53.578 312.003 71.4795C310.314 77.6943 310.246 92.5559 312.003 98.0952C315.988 111.2 325.513 121.806 337.335 126.265C347.13 129.98 361.586 130.791 371.381 128.291C387.662 124.035 400.497 111.673 404.887 95.9335C410.765 74.722 403.131 53.7807 385.838 43.2425C376.178 37.3654 362.059 35.1361 349.427 37.4329ZM360.64 49.4573C366.855 53.1052 371.584 63.7109 373.543 78.2347C375.907 95.7309 373.746 110.592 368.071 116.132C365.977 118.158 365.302 118.429 362.059 118.429C359.087 118.429 358.073 118.091 355.844 116.334C349.089 110.93 344.766 98.9734 343.482 82.0852C342.266 66.7508 344.495 55.1317 349.494 50.3355C352.872 47.2281 356.385 46.9579 360.64 49.4573Z" fill="white"/>
<path d="M456.835 37.4329C432.381 41.8239 416.709 62.0221 417.925 87.6921C419.074 111.133 435.016 127.278 459.2 129.44C475.953 130.993 489.936 126.4 500.204 116.064C502.974 113.227 506.284 109.241 507.5 107.147C512.701 98.2979 515.201 85.9357 513.782 75.8704C510.742 53.9833 496.624 40.2026 474.264 37.0952C467.576 36.1494 463.388 36.217 456.835 37.4329ZM467.036 48.7818C469.941 50.2679 473.791 54.9966 475.953 59.5902C478.79 65.6699 480.546 73.3709 481.425 83.3687C482.776 98.7032 480.546 111.065 475.548 116.064C473.386 118.158 472.778 118.429 469.603 118.429C466.698 118.429 465.482 118.091 463.523 116.537C455.417 110.39 450.688 94.9878 450.688 74.8571C450.688 63.6434 451.634 58.104 454.471 53.0376C457.106 48.3089 462.577 46.485 467.036 48.7818Z" fill="white"/>
<path d="M535.872 40.2701L518.443 43.9855V48.444V52.9025L521.956 54.5913C524.05 55.6046 526.144 57.2258 527.023 58.5769L528.576 60.8737V102.013C528.576 135.384 528.374 143.558 527.631 145.382C526.752 147.544 524.185 149.233 520.335 150.178C518.443 150.651 518.443 150.719 518.443 156.326V162L546.68 161.865L574.85 161.662L575.053 156.19L575.255 150.719L571.337 149.908C565.798 148.827 562.218 146.598 561.204 143.761C560.259 140.991 560.056 127.548 560.934 127.548C561.272 127.548 563.501 128.021 565.865 128.697C571.337 130.115 581.605 130.115 587.347 128.629C595.318 126.602 601.331 123.157 607.275 117.145C616.733 107.62 620.718 96.8117 620.651 80.5991C620.583 65.6024 617.07 55.8748 608.559 47.3632C602.817 41.4861 597.548 38.784 589.239 37.2978C578.363 35.3388 569.783 37.6356 563.501 44.1882L560.326 47.4983V41.8914V36.3521L556.813 36.4196C554.854 36.4872 545.397 38.176 535.872 40.2701ZM578.363 55.6721C581.605 58.3067 584.307 63.1705 586.064 69.9257C587.28 74.1816 587.55 77.2214 587.55 86.0033C587.55 91.9479 587.212 98.2303 586.807 99.9867C583.362 113.97 576.539 119.847 568.162 116.132C561.745 113.295 560.326 105.864 560.326 73.9789V55.9423L562.555 54.5237C564.379 53.3753 565.595 53.2402 570.256 53.3753C575.188 53.578 575.998 53.7807 578.363 55.6721Z" fill="white"/>
<path d="M661.655 36.7574C660.709 36.8925 658.142 37.3654 655.913 37.7707C642.74 40.135 632.675 48.5115 630.176 59.2524C627.473 70.6013 630.919 81.6123 639.025 87.7596C643.821 91.4075 648.888 93.2989 661.925 96.4064C678.611 100.46 682.259 102.824 682.259 109.376C682.259 115.118 678.205 118.901 671.585 119.307C667.937 119.509 666.654 119.307 663.344 117.753C658.548 115.456 652.468 109.512 647.131 101.946L643.213 96.3388L639.565 99.9867C637.539 101.946 633.418 106.269 630.378 109.579L624.906 115.524L626.865 117.145C629.635 119.374 636.728 123.022 642.335 125.116C653.414 129.305 669.153 130.723 679.557 128.561C690.095 126.332 700.295 119.037 703.943 111.065C708.604 100.797 705.632 86.6112 697.188 79.1804C692.594 75.1273 686.042 72.0874 674.828 68.8449C658.345 63.9811 654.359 61.6843 653.211 56.6179C652.198 51.8892 658.075 46.9578 664.965 46.8903C672.599 46.7552 679.084 51.6865 685.366 62.4274C686.987 65.197 688.541 67.4263 688.811 67.4263C689.081 67.4263 692.662 62.8327 696.715 57.1583C705.294 45.4041 705.294 46.0121 697.661 42.3642C690.703 39.0542 681.448 37.0276 671.788 36.6898C667.127 36.5547 662.601 36.5547 661.655 36.7574Z" fill="white"/>
</svg>
