<svg width="459" height="112" viewBox="0 0 459 112" fill="none" xmlns="http://www.w3.org/2000/svg">
<path d="M128.609 85.8667H137.974V60.9654H153.98C165.474 60.9654 173.902 55.6416 173.902 42.7616C173.902 29.8816 165.474 24.472 153.98 24.472H128.609V85.8667ZM137.974 52.808V32.6294H153.554C160.621 32.6294 164.197 35.8064 164.197 42.7616C164.197 49.631 160.621 52.808 153.554 52.808H137.974ZM190.134 87.0688C197.2 87.0688 202.138 84.2352 204.948 79.6843H205.118C205.629 84.6646 207.843 86.296 212.014 86.296C213.377 86.296 214.824 86.1243 216.271 85.7808V80.6288C215.76 80.7147 215.505 80.7147 215.25 80.7147C213.632 80.7147 213.206 79.0832 213.206 75.9062V55.8134C213.206 44.479 206.055 40.7008 197.115 40.7008C183.834 40.7008 178.385 47.3126 177.959 55.7275H186.473C186.899 49.8886 189.198 47.4843 196.775 47.4843C203.16 47.4843 205.033 50.1462 205.033 53.3232C205.033 57.6166 200.861 58.4752 194.05 59.7632C183.238 61.824 175.916 64.7435 175.916 74.5323C175.916 82.0027 181.45 87.0688 190.134 87.0688ZM184.6 73.9312C184.6 69.3803 187.835 67.2336 195.498 65.688C199.925 64.7435 203.671 63.799 205.033 62.511V68.7792C205.033 76.4214 199.499 80.2854 192.007 80.2854C186.814 80.2854 184.6 78.0528 184.6 73.9312ZM227.648 101.237C234.374 101.237 238.545 97.7163 242.717 86.8971L259.915 42.0747H251.146L239.226 75.5627H239.056L226.371 42.0747H217.261L234.799 85.4374C233.096 92.3067 229.18 94.024 225.86 94.024C224.498 94.024 223.731 93.9382 222.284 93.7664V100.636C224.498 101.065 225.775 101.237 227.648 101.237ZM265.013 85.8667H273.356V24.472H265.013V85.8667ZM302.133 87.1547C315.67 87.1547 323.843 77.6235 323.843 63.8848C323.843 50.232 315.67 40.7008 302.218 40.7008C288.596 40.7008 280.423 50.3179 280.423 63.9707C280.423 77.7094 288.596 87.1547 302.133 87.1547ZM289.107 63.9707C289.107 54.783 293.194 47.7419 302.218 47.7419C311.072 47.7419 315.159 54.783 315.159 63.9707C315.159 73.0726 311.072 80.1995 302.218 80.1995C293.194 80.1995 289.107 73.0726 289.107 63.9707ZM342.949 87.0688C350.015 87.0688 354.953 84.2352 357.762 79.6843H357.933C358.443 84.6646 360.657 86.296 364.829 86.296C366.191 86.296 367.638 86.1243 369.086 85.7808V80.6288C368.575 80.7147 368.319 80.7147 368.064 80.7147C366.446 80.7147 366.021 79.0832 366.021 75.9062V55.8134C366.021 44.479 358.869 40.7008 349.93 40.7008C336.648 40.7008 331.2 47.3126 330.774 55.7275H339.288C339.713 49.8886 342.012 47.4843 349.589 47.4843C355.974 47.4843 357.847 50.1462 357.847 53.3232C357.847 57.6166 353.676 58.4752 346.865 59.7632C336.052 61.824 328.731 64.7435 328.731 74.5323C328.731 82.0027 334.265 87.0688 342.949 87.0688ZM337.415 73.9312C337.415 69.3803 340.65 67.2336 348.312 65.688C352.739 64.7435 356.485 63.799 357.847 62.511V68.7792C357.847 76.4214 352.314 80.2854 344.822 80.2854C339.628 80.2854 337.415 78.0528 337.415 73.9312ZM393.041 87.0688C399.852 87.0688 404.024 83.8059 406.407 80.7147H406.578V85.8667H414.921V24.472H406.578V47.3984H406.407C404.024 43.9638 399.852 40.7867 393.041 40.7867C381.973 40.7867 373.545 49.5451 373.545 63.9707C373.545 78.3963 381.973 87.0688 393.041 87.0688ZM382.229 63.9707C382.229 55.384 386.23 47.8278 394.403 47.8278C401.895 47.8278 406.493 54.0102 406.493 63.9707C406.493 73.8454 401.895 80.1136 394.403 80.1136C386.23 80.1136 382.229 72.5574 382.229 63.9707Z" fill="white"/>
<mask id="mask0_1_104" style="mask-type:luminance" maskUnits="userSpaceOnUse" x="0" y="2" width="97" height="106">
<path d="M96.2419 2.5603H0V107.094H96.2419V2.5603Z" fill="white"/>
</mask>
<g mask="url(#mask0_1_104)">
<mask id="mask1_1_104" style="mask-type:luminance" maskUnits="userSpaceOnUse" x="14" y="2" width="68" height="95">
<path d="M81.8053 2.5603H14.4359V96.6403H81.8053V2.5603Z" fill="white"/>
</mask>
<g mask="url(#mask1_1_104)">
<path d="M45.3307 8.73132L82.4975 32.997V79.0552L54.5111 96.6403V50.5822L17.2998 26.3484L45.3307 8.73132Z" fill="white"/>
<path d="M42.4816 94.0867V58.1459L14.4359 75.7631L42.4816 94.0867Z" fill="white"/>
</g>
</g>
<path d="M445.826 23.5311C440.81 23.5311 436.783 27.2534 436.783 32.7031C436.783 38.1043 440.81 41.8022 445.826 41.8022C450.819 41.8022 454.85 38.1043 454.85 32.7031C454.85 27.2534 450.819 23.5311 445.826 23.5311ZM445.826 40.1722C441.75 40.1722 438.567 37.1553 438.567 32.7031C438.567 28.178 441.75 25.1612 445.826 25.1612C449.975 25.1612 453.063 28.178 453.063 32.7031C453.063 37.1553 449.975 40.1722 445.826 40.1722ZM446.118 33.506L448.069 37.204H450.264L448.047 33.0924C449.254 32.5572 449.783 31.584 449.783 30.5135C449.783 27.9833 448.095 27.4967 445.249 27.4967H442.306V37.204H444.282V33.506H446.118ZM445.563 29.0781C446.888 29.0781 447.806 29.3701 447.806 30.5378C447.806 31.4867 447.177 31.9733 445.682 31.9733H444.282V29.0781H445.563Z" fill="white"/>
</svg>
