<svg width="573" height="140" viewBox="0 0 573 140" fill="none" xmlns="http://www.w3.org/2000/svg">
<g clip-path="url(#clip0_1_33)">
<path d="M143.211 108.539V37.2591H173.43C177.703 37.2591 181.534 38.2612 184.927 40.2629C188.318 42.2663 191.014 44.9984 193.016 48.46C195.016 51.9224 196.017 55.8273 196.017 60.171C196.017 64.5841 195.016 68.5558 193.016 72.0843C191.014 75.6153 188.318 78.4151 184.927 80.4854C181.534 82.5574 177.703 83.5913 173.43 83.5913H158.473V108.539H143.211ZM158.269 69.8443H171.7C173.328 69.8443 174.786 69.4208 176.075 68.5712C177.363 67.7234 178.398 66.5858 179.178 65.1602C179.957 63.7346 180.349 62.105 180.349 60.2721C180.349 58.4393 179.957 56.8457 179.178 55.4869C178.398 54.129 177.363 53.0429 176.075 52.2276C174.786 51.4132 173.328 51.006 171.7 51.006H158.269V69.8443ZM205.683 108.539V33.1862H220.131V108.539H205.683ZM251.875 109.558C247.398 109.558 243.362 108.335 239.768 105.892C236.171 103.448 233.322 100.123 231.221 95.9126C229.117 91.7043 228.066 86.8848 228.066 81.4524C228.066 76.0225 229.135 71.203 231.271 66.993C233.409 62.7848 236.308 59.4929 239.971 57.1157C243.633 54.7403 247.806 53.5521 252.486 53.5521C255.131 53.5521 257.555 53.943 259.761 54.7231C261.964 55.5041 263.897 56.5731 265.56 57.9301C267.221 59.2889 268.628 60.8499 269.783 62.6142C270.935 64.381 271.749 66.2806 272.225 68.3166L269.172 67.8074V54.6717H283.518V108.539H268.969V95.6066L272.225 95.3014C271.681 97.2028 270.8 99.0022 269.579 100.699C268.358 102.396 266.848 103.906 265.051 105.23C263.253 106.554 261.236 107.606 258.998 108.387C256.759 109.166 254.384 109.558 251.875 109.558ZM255.843 97.0322C258.556 97.0322 260.931 96.3884 262.965 95.0982C265 93.8089 266.577 91.9924 267.697 89.6503C268.815 87.3083 269.376 84.5762 269.376 81.4524C269.376 78.398 268.815 75.7173 267.697 73.4087C266.577 71.101 265 69.2845 262.965 67.9609C260.931 66.6364 258.556 65.9746 255.843 65.9746C253.198 65.9746 250.874 66.6364 248.874 67.9609C246.872 69.2845 245.295 71.101 244.142 73.4087C242.988 75.7173 242.413 78.398 242.413 81.4524C242.413 84.5762 242.988 87.3083 244.142 89.6503C245.295 91.9924 246.872 93.8089 248.874 95.0982C250.874 96.3884 253.198 97.0322 255.843 97.0322ZM313.43 109.558C309.496 109.558 306.12 108.692 303.307 106.961C300.491 105.23 298.321 102.753 296.795 99.5277C295.269 96.3035 294.506 92.4167 294.506 87.8681V54.6717H308.954V85.5261C308.954 87.9701 309.361 90.0927 310.175 91.8904C310.989 93.6897 312.141 95.0648 313.634 96.0146C315.125 96.9653 316.957 97.4402 319.128 97.4402C320.688 97.4402 322.13 97.1856 323.453 96.6764C324.775 96.1672 325.928 95.4385 326.912 94.487C327.894 93.5372 328.657 92.4167 329.201 91.1265C329.744 89.8381 330.015 88.4459 330.015 86.9517V54.6717H344.463V108.539H330.728L330.219 97.4402L332.864 96.2178C332.05 98.7304 330.693 101.004 328.794 103.041C326.895 105.077 324.623 106.673 321.977 107.827C319.332 108.98 316.483 109.558 313.43 109.558ZM375.087 109.558C370.067 109.558 365.608 108.725 361.708 107.063C357.806 105.4 354.67 103.108 352.297 100.189L361.352 92.4502C363.387 94.6902 365.692 96.3035 368.271 97.2868C370.847 98.2718 373.425 98.7638 376.003 98.7638C377.021 98.7638 377.953 98.6455 378.801 98.4072C379.649 98.1698 380.378 97.8312 380.989 97.3888C381.599 96.9482 382.057 96.4055 382.362 95.76C382.668 95.1154 382.82 94.4201 382.82 93.6726C382.82 92.1801 382.229 90.9948 380.989 90.2101C380.32 89.7866 379.259 89.3443 377.834 88.8351C376.41 88.3259 374.579 87.7661 372.34 87.1549C368.881 86.2736 365.946 85.238 363.539 84.049C361.131 82.8626 359.215 81.521 357.791 80.0268C356.57 78.602 355.637 77.0581 354.992 75.3942C354.347 73.7311 354.026 71.8811 354.026 69.8443C354.026 67.4002 354.568 65.1774 355.654 63.1748C356.738 61.1731 358.248 59.4577 360.181 58.0321C362.115 56.6065 364.336 55.5041 366.846 54.7231C369.354 53.943 372 53.5521 374.782 53.5521C377.563 53.5521 380.276 53.8924 382.922 54.5697C385.567 55.2495 388.025 56.2164 390.298 57.4723C392.571 58.7291 394.554 60.2053 396.25 61.9018L388.518 70.4555C387.297 69.3016 385.924 68.2498 384.397 67.2982C382.871 66.3484 381.294 65.6026 379.666 65.0582C378.038 64.5156 376.579 64.2438 375.291 64.2438C374.137 64.2438 373.104 64.3458 372.188 64.549C371.272 64.753 370.509 65.0762 369.898 65.5168C369.288 65.9592 368.83 66.4838 368.525 67.095C368.219 67.7063 368.067 68.3852 368.067 69.1319C368.067 69.8794 368.253 70.5918 368.626 71.2699C368.999 71.9497 369.525 72.5266 370.204 73.0007C370.949 73.4087 372.051 73.8837 373.51 74.4263C374.968 74.9707 376.952 75.5819 379.463 76.2591C382.718 77.143 385.482 78.1271 387.755 79.2124C390.027 80.2994 391.841 81.5544 393.199 82.98C394.351 84.2025 395.199 85.5947 395.742 87.1549C396.284 88.7176 396.556 90.4485 396.556 92.3481C396.556 95.6752 395.623 98.6284 393.758 101.208C391.891 103.788 389.332 105.825 386.076 107.318C382.82 108.81 379.158 109.558 375.087 109.558ZM413.139 43.6748C410.357 43.6748 408.187 42.9795 406.628 41.5874C405.066 40.196 404.288 38.244 404.288 35.7314C404.288 33.4245 405.084 31.5412 406.678 30.0804C408.271 28.6213 410.426 27.891 413.139 27.891C415.92 27.891 418.09 28.5879 419.651 29.9784C421.211 31.3706 421.991 33.2882 421.991 35.7314C421.991 38.04 421.193 39.9414 419.6 41.4339C418.005 42.9281 415.851 43.6748 413.139 43.6748ZM406.017 108.539V54.6717H420.465V108.539H406.017ZM464.928 109.558C462.553 109.558 460.248 109.217 458.009 108.539C455.77 107.861 453.736 106.928 451.904 105.738C450.073 104.552 448.547 103.193 447.326 101.666C446.105 100.138 445.324 98.5598 444.985 96.931L448.241 95.7086L447.529 108.335H433.895V33.1862H448.445V67.2982L445.596 66.1786C446.003 64.549 446.782 62.9708 447.936 61.4431C449.088 59.9164 450.546 58.5585 452.312 57.3703C454.074 56.183 456.008 55.2495 458.11 54.5697C460.212 53.8924 462.384 53.5521 464.622 53.5521C469.302 53.5521 473.49 54.7574 477.188 57.1663C480.884 59.5769 483.784 62.8868 485.887 67.095C487.989 71.305 489.042 76.1245 489.042 81.5544C489.042 86.9869 488.006 91.8055 485.938 96.0146C483.868 100.225 481.004 103.534 477.34 105.943C473.678 108.353 469.54 109.558 464.928 109.558ZM461.468 97.2362C464.18 97.2362 466.538 96.5744 468.54 95.2508C470.539 93.9263 472.117 92.0935 473.271 89.7515C474.424 87.4095 475 84.6783 475 81.5544C475 78.5 474.441 75.7851 473.321 73.4087C472.203 71.0333 470.626 69.1996 468.591 67.9094C466.555 66.621 464.18 65.9746 461.468 65.9746C458.755 65.9746 456.381 66.621 454.346 67.9094C452.312 69.1996 450.734 71.0333 449.615 73.4087C448.496 75.7851 447.936 78.5 447.936 81.5544C447.936 84.6783 448.496 87.4095 449.615 89.7515C450.734 92.0935 452.312 93.9263 454.346 95.2508C456.381 96.5744 458.755 97.2362 461.468 97.2362ZM497.994 108.539V33.1862H512.442V108.539H497.994ZM549.578 109.558C543.744 109.558 538.64 108.37 534.265 105.993C529.89 103.618 526.498 100.359 524.091 96.2178C521.682 92.0781 520.478 87.3255 520.478 81.9616C520.478 77.7533 521.156 73.9171 522.514 70.4555C523.87 66.993 525.769 63.9892 528.212 61.4431C530.654 58.8979 533.553 56.9297 536.911 55.5375C540.268 54.147 543.914 53.4501 547.848 53.4501C551.511 53.4501 554.902 54.129 558.023 55.4869C561.142 56.8457 563.838 58.7291 566.112 61.138C568.383 63.5486 570.131 66.3998 571.351 69.6917C572.573 72.9853 573.115 76.5317 572.98 80.3328L572.878 84.8128H529.636L527.296 75.9539H560.973L559.346 77.7868V75.5467C559.209 73.7139 558.616 72.0689 557.565 70.6081C556.512 69.149 555.174 67.9952 553.546 67.1456C551.918 66.2978 550.086 65.8735 548.052 65.8735C545.066 65.8735 542.54 66.4504 540.471 67.6043C538.402 68.759 536.825 70.4555 535.741 72.6955C534.655 74.9355 534.112 77.6513 534.112 80.842C534.112 84.1005 534.807 86.9183 536.198 89.2937C537.587 91.6709 539.556 93.5191 542.1 94.8436C544.643 96.1672 547.645 96.829 551.104 96.829C553.478 96.829 555.648 96.457 557.616 95.7086C559.582 94.9628 561.686 93.6726 563.924 91.8389L570.843 101.513C568.875 103.279 566.705 104.755 564.331 105.943C561.956 107.131 559.514 108.03 557.006 108.641C554.495 109.252 552.02 109.558 549.578 109.558Z" fill="white"/>
<path d="M105.487 52.7397C102.944 77.1365 81.6303 95.27 57.121 95.27H47.6838V117.6C47.6838 129.971 37.6631 140 25.302 140H7.8336C3.50722 140 0 136.49 0 132.16V86.1875L11.7459 69.6941C13.8718 66.709 17.7796 65.5951 21.158 67.0112L27.8392 69.8119C31.2069 71.2236 35.1025 70.1139 37.2228 67.139L52.8835 45.1657C54.9984 42.1983 58.8855 41.0938 62.2429 42.5063L75.1121 47.9206C78.4765 49.336 82.3717 48.2285 84.4899 45.2542L99.5497 24.1082C104.27 32.4144 106.578 42.282 105.487 52.7397Z" fill="url(#paint0_linear_1_33)"/>
<path d="M7.67531 67.3694C9.59476 64.6741 12.3869 62.6013 15.6345 61.9761C18.1668 61.4886 20.6632 61.7444 22.9722 62.7123L29.6517 65.5122C30.0366 65.6735 30.4418 65.7553 30.8558 65.7553C31.8737 65.7553 32.8348 65.2595 33.4266 64.4291L48.8006 42.8579C50.7198 40.1652 53.5111 38.0956 56.7566 37.4719C59.2796 36.987 61.7607 37.2411 64.05 38.2042L76.9191 43.6185C77.3075 43.782 77.716 43.8648 78.1331 43.8648C79.1477 43.8648 80.1047 43.3716 80.6929 42.5456L96.8247 19.8941C88.1918 7.85036 74.0936 0 58.1578 0H7.8336C3.50722 0 0 3.51007 0 7.83996V78.1471L7.67531 67.3694Z" fill="url(#paint1_linear_1_33)"/>
</g>
<defs>
<linearGradient id="paint0_linear_1_33" x1="34.6017" y1="52.6019" x2="64.088" y2="104.161" gradientUnits="userSpaceOnUse">
<stop stop-color="#C4C4C4"/>
<stop offset="1" stop-color="#888888"/>
</linearGradient>
<linearGradient id="paint1_linear_1_33" x1="18.6137" y1="-3.16935" x2="48.9997" y2="49.9629" gradientUnits="userSpaceOnUse">
<stop stop-color="#C4C4C4"/>
<stop offset="1" stop-color="#888888"/>
</linearGradient>
<clipPath id="clip0_1_33">
<rect width="573" height="140" fill="white"/>
</clipPath>
</defs>
</svg>
