<svg width="436" height="112" viewBox="0 0 436 112" fill="none" xmlns="http://www.w3.org/2000/svg">
<g clip-path="url(#clip0_1_121)">
<path fill-rule="evenodd" clip-rule="evenodd" d="M102.471 60.6978L110.734 68.9764C111.387 69.6329 111.757 70.5258 111.757 71.4529V76.1102C111.757 88.5889 110.46 93.1156 108.024 97.6796C105.645 102.186 101.966 105.874 97.4649 108.264C92.9102 110.7 88.3929 112 75.9391 112H54.0711C53.7887 111.999 53.5349 111.827 53.4275 111.566C53.32 111.305 53.38 111.005 53.5796 110.805V110.808L61.8395 102.53C62.4929 101.873 63.3827 101.503 64.3098 101.503H74.4178C83.7573 101.503 87.1422 100.529 90.5582 98.6969C93.9345 96.9054 96.6942 94.1402 98.4791 90.7604C100.275 87.3953 101.246 84.0571 101.278 75.0458L101.279 61.1924C101.281 60.9109 101.451 60.6576 101.711 60.5496C101.971 60.4417 102.27 60.5 102.471 60.6978ZM1.19156 53.6947L9.45778 61.9733C10.1111 62.6298 10.4813 63.5227 10.4813 64.4498V74.5796C10.4813 83.9409 11.452 87.3351 13.2813 90.7573C15.0654 94.1367 17.824 96.9017 21.1991 98.6938C24.6151 100.526 28.0031 101.5 37.3427 101.5H50.7018C50.9853 101.499 51.2414 101.669 51.3504 101.931C51.4595 102.192 51.3999 102.494 51.1996 102.695L42.9333 110.973C42.28 111.63 41.3902 112 40.4662 112H35.8182C23.3644 112 18.8502 110.7 14.2956 108.26C9.79314 105.871 6.11309 102.184 3.73333 97.6764C1.33117 93.1758 0.0362567 88.7115 0.000750346 76.6225L0 54.1893C0.001486 53.9078 0.171541 53.6545 0.431599 53.5465C0.691657 53.4386 0.991088 53.4969 1.19156 53.6947ZM164.64 31.1914C167.897 31.1914 170.828 31.7956 173.432 33.0027C176.036 34.2067 178.254 35.8649 180.09 37.9649C181.961 40.1359 183.379 42.66 184.259 45.388C185.208 48.2347 185.68 51.2991 185.68 54.5751C185.706 57.7012 185.196 60.8085 184.172 63.7622C183.24 66.4772 181.811 68.9946 179.956 71.1853C178.157 73.2829 175.934 74.9743 173.432 76.1476C170.821 77.3691 167.968 77.9879 165.085 77.9582C163.072 77.9582 161.299 77.7404 159.759 77.308C158.334 76.9216 156.963 76.3604 155.677 75.6373C154.591 75.0287 153.579 74.298 152.659 73.4596C151.905 72.7703 151.22 72.0085 150.615 71.1853C150.469 71.1853 150.349 71.3032 150.348 71.4498V93.9244C150.348 96.1753 148.523 98 146.272 98H143.774C141.523 98 139.698 96.1753 139.698 93.9244V36.3813C139.698 34.132 141.521 32.3058 143.774 32.3058H146.474C148.319 32.3058 149.816 33.7991 149.816 35.6471V38.808C149.816 38.9076 149.896 38.9853 149.993 38.9853C151.533 36.2631 153.602 34.2876 156.209 33.0462C158.844 31.8028 161.726 31.169 164.64 31.1914ZM85.0111 43.1947L93.2742 51.4827C93.9275 52.1391 94.2947 53.0289 94.2947 53.9591V80.5093C94.2947 88.2404 88.0413 94.5093 80.3258 94.5093H71.4809C71.2016 94.508 70.9499 94.3408 70.8404 94.0839C70.7308 93.827 70.7843 93.5295 70.9769 93.3271V93.324L81.7413 82.0338C82.488 81.2871 83.0293 80.416 83.3684 79.4827C83.6658 78.692 83.8176 77.8541 83.8164 77.0093V43.6893C83.8167 43.4064 83.9872 43.1514 84.2486 43.0432C84.5101 42.935 84.8109 42.9947 85.0111 43.1947ZM18.6449 71.1324H18.6418L29.9102 81.9218C30.6538 82.6684 31.528 83.2098 32.4551 83.5489C33.2204 83.8413 34.0542 84 34.9253 84H68.1707C68.453 84.0015 68.7068 84.1725 68.8143 84.4336C68.9217 84.6948 68.8618 84.9949 68.6622 85.1947L60.3929 93.4764C59.7396 94.1298 58.8498 94.5 57.9258 94.5H31.4316C27.7226 94.4959 24.1673 93.0186 21.5476 90.3931C18.9279 87.7675 17.4585 84.2089 17.4627 80.5V71.6364C17.464 71.3572 17.6312 71.1054 17.8881 70.9959C18.145 70.8864 18.4425 70.9398 18.6449 71.1324ZM422.004 31.1916C424.729 31.1916 427.464 31.7333 430.217 32.816C431.265 33.2298 432.504 33.9671 433.928 35.028C434.866 35.7258 435.459 36.7925 435.557 37.9572C435.654 39.1218 435.247 40.2724 434.439 41.1164L432.79 42.8369C431.342 44.3504 428.982 44.5199 427.333 43.2289C426.966 42.9351 426.58 42.6649 426.179 42.42C424.923 41.6453 423.479 41.2279 422.004 41.2129C420.053 41.2129 418.304 41.5862 416.768 42.3267C415.265 43.0412 413.921 44.0505 412.816 45.2947C411.716 46.5409 410.872 47.9912 410.331 49.5631C409.768 51.173 409.483 52.8667 409.488 54.572C409.488 56.308 409.768 57.9756 410.331 59.584C410.891 61.1924 411.721 62.6173 412.82 63.8524C413.923 65.0974 415.266 66.1077 416.768 66.8236C418.304 67.564 420.053 67.9373 422.004 67.9373C423.662 67.9373 425.202 67.5796 426.62 66.8702C426.91 66.724 427.221 66.528 427.554 66.2822C429.25 65.0336 431.618 65.2831 433.017 66.8578L434.635 68.6747C435.411 69.5462 435.753 70.7205 435.568 71.8726C435.383 73.0247 434.689 74.0324 433.68 74.6169C431.115 76.1108 428.304 77.1329 425.379 77.6347C424.076 77.8493 422.952 77.9586 422.004 77.9586C418.907 77.9762 415.836 77.4094 412.95 76.2876C410.196 75.2305 407.688 73.62 405.58 71.5556C403.465 69.448 401.791 66.9404 400.655 64.1791C399.442 61.3013 398.835 58.1 398.835 54.5751C398.835 51.0502 399.442 47.8489 400.655 44.9711C401.791 42.2098 403.465 39.7022 405.58 37.5947C407.688 35.5302 410.196 33.9197 412.95 32.8627C415.836 31.7408 418.907 31.174 422.004 31.1916ZM271.883 31.192C274.724 31.192 277.536 31.7022 280.317 32.7227C281.325 33.0929 282.448 33.7773 283.69 34.776C284.608 35.5157 285.161 36.6168 285.206 37.7951C285.25 38.9733 284.783 40.1132 283.923 40.9204L282.598 42.168C281.165 43.5158 278.974 43.648 277.39 42.4822C275.228 40.8956 273.302 40.0991 271.619 40.0991C270.197 40.0991 268.806 40.4724 267.444 41.2129C266.084 41.9564 265.403 43.1604 265.403 44.8311C265.403 46.1938 265.963 47.1831 267.089 47.8022C268.215 48.4182 269.634 48.9471 271.351 49.3796C273.068 49.812 274.916 50.26 276.898 50.7236C278.883 51.1902 280.731 51.8996 282.448 52.8578C284.166 53.816 285.584 55.1289 286.711 56.8027C287.834 58.4733 288.397 60.76 288.397 63.6689C288.397 66.3289 287.849 68.5689 286.754 70.3951C285.699 72.1789 284.239 73.6892 282.492 74.8036C280.68 75.9438 278.683 76.7597 276.59 77.2147C274.434 77.7062 272.231 77.9556 270.02 77.9582C266.706 77.9582 263.657 77.4604 260.873 76.4742C259.784 76.0853 258.477 75.3076 256.953 74.1378C256.015 73.4187 255.436 72.3281 255.365 71.1485C255.293 69.9689 255.738 68.8166 256.583 67.9902L257.687 66.9076C259.212 65.4123 261.632 65.3472 263.234 66.7582C263.881 67.3276 264.441 67.7662 264.914 68.0742C266.482 69.0978 268.392 69.608 270.639 69.608C271.41 69.608 272.21 69.5147 273.037 69.328C273.868 69.1413 274.636 68.8333 275.346 68.4009C276.055 67.9653 276.634 67.4271 277.079 66.7769C277.52 66.1267 277.744 65.3707 277.744 64.5058C277.744 62.9564 277.181 61.8116 276.055 61.0711C274.932 60.3276 273.51 59.724 271.793 59.2604C269.958 58.7692 268.108 58.3365 266.246 57.9631C264.314 57.578 262.446 56.9212 260.699 56.0124C258.993 55.1254 257.53 53.8353 256.436 52.2542C255.313 50.6458 254.75 48.4182 254.75 45.5747C254.75 43.1013 255.239 40.9516 256.212 39.1253C257.145 37.3535 258.466 35.8155 260.076 34.6267C261.733 33.4225 263.601 32.5403 265.583 32.0258C267.637 31.4719 269.756 31.192 271.883 31.192ZM383.304 32.3058C385.557 32.3058 387.38 34.132 387.38 36.3813V72.7689C387.38 75.0198 385.555 76.8444 383.304 76.8444H380.806C378.555 76.8444 376.731 75.0198 376.731 72.7689V36.3813C376.731 34.132 378.554 32.3058 380.806 32.3058H383.304ZM348.233 31.192C351.073 31.192 353.469 31.6867 355.423 32.676C357.322 33.6189 358.955 35.0221 360.173 36.7578C361.387 38.4907 362.258 40.516 362.79 42.8369C363.325 45.1578 363.589 47.6467 363.589 50.3036V72.7658C363.589 75.0166 361.765 76.8413 359.514 76.8413H357.012C354.762 76.8413 352.937 75.0166 352.937 72.7658V51.604C352.937 50.2444 352.819 48.9284 352.582 47.6622C352.378 46.481 351.956 45.348 351.338 44.3209C350.751 43.3679 349.925 42.5849 348.942 42.0498C347.934 41.4898 346.634 41.2129 345.035 41.2129C343.38 41.2129 341.973 41.5364 340.819 42.1867C339.683 42.8198 338.71 43.7093 337.979 44.7844C337.219 45.9113 336.677 47.1701 336.38 48.496C336.055 49.8798 335.891 51.2964 335.891 52.7178V72.7689C335.891 75.0198 334.066 76.8444 331.816 76.8444H329.314C327.063 76.8444 325.239 75.0198 325.239 72.7689V50.3067C325.239 47.5222 324.679 45.3102 323.552 43.6707C322.426 42.0342 320.566 41.2129 317.959 41.2129C316.185 41.2129 314.689 41.524 313.476 42.14C312.262 42.7622 311.257 43.596 310.458 44.6476C309.645 45.7262 309.056 46.9564 308.725 48.2658C308.367 49.6601 308.189 51.0947 308.196 52.5342V72.7689C308.196 73.8503 307.766 74.8874 307.001 75.6518C306.236 76.4163 305.199 76.8453 304.117 76.8444H301.616C299.365 76.8444 297.54 75.0198 297.54 72.7689V36.3813C297.54 34.132 299.367 32.3058 301.616 32.3058H303.585C305.835 32.3058 307.661 34.132 307.661 36.3813V39.2653C308.827 37.0768 310.447 35.1623 312.412 33.6498C314.512 32.0102 317.336 31.192 320.889 31.192C327.578 31.192 332.015 33.9453 334.205 39.4489C335.745 36.6053 337.668 34.5178 339.976 33.1862C342.284 31.8578 345.035 31.192 348.233 31.192ZM220.394 31.192C221.044 31.192 221.682 31.2542 222.301 31.3787C223.411 31.5984 224.211 32.5715 224.212 33.7027V39.8129C224.212 40.4722 223.92 41.0977 223.414 41.5206C222.908 41.9435 222.241 42.1202 221.592 42.0031C220.757 41.8502 219.911 41.7721 219.063 41.7698C216.574 41.7698 214.58 42.2489 213.071 43.2071C211.562 44.1684 210.408 45.2636 209.608 46.5049C208.855 47.6339 208.313 48.8905 208.009 50.2133C207.741 51.4516 207.611 52.3787 207.611 52.9978V72.7689C207.611 75.0198 205.786 76.8444 203.535 76.8444H201.034C198.783 76.8444 196.958 75.0198 196.958 72.7689V36.3813C196.958 34.132 198.781 32.3058 201.034 32.3058H204.083C206.03 32.3058 207.611 33.8831 207.611 35.8307V39.1813C207.611 39.2778 207.688 39.3587 207.788 39.3587C208.97 36.7578 210.656 34.748 212.847 33.3262C215.037 31.9044 217.554 31.192 220.394 31.192ZM239.577 32.3058C241.827 32.3058 243.653 34.132 243.653 36.3813V72.7689C243.653 75.0198 241.828 76.8444 239.577 76.8444H237.076C234.825 76.8444 233 75.0198 233 72.7689V36.3813C233 34.132 234.824 32.3058 237.076 32.3058H239.577ZM40.2764 17.5C40.5557 17.5014 40.8075 17.6686 40.917 17.9255C41.0265 18.1824 40.9731 18.4798 40.7804 18.6822L30.0129 29.9756C29.2662 30.7222 28.728 31.5933 28.3889 32.5267C28.0905 33.3171 27.9376 34.1551 27.9378 35V68.32C27.9351 68.601 27.7645 68.8531 27.5048 68.9603C27.245 69.0675 26.9463 69.0089 26.7462 68.8116L18.4831 60.5236C17.8291 59.8666 17.4622 58.9772 17.4627 58.0502V31.5C17.4627 23.7689 23.716 17.5 31.4316 17.5H40.2764ZM162.512 41.2129C160.558 41.2129 158.81 41.5862 157.273 42.3267C155.77 43.0412 154.427 44.0505 153.322 45.2947C152.222 46.5409 151.377 47.9912 150.836 49.5631C150.275 51.1732 149.991 52.8669 149.996 54.572C149.996 56.308 150.276 57.9756 150.836 59.584C151.399 61.1924 152.227 62.6173 153.325 63.8524C154.429 65.0977 155.773 66.1081 157.276 66.8236C158.813 67.564 160.558 67.9373 162.512 67.9373C164.466 67.9373 166.211 67.564 167.748 66.8236C169.251 66.1081 170.595 65.0977 171.699 63.8524C172.794 62.6173 173.622 61.1924 174.188 59.584C174.748 57.9756 175.028 56.308 175.028 54.5751C175.028 52.8422 174.748 51.1716 174.188 49.5662C173.646 47.9929 172.801 46.5415 171.699 45.2947C170.594 44.0505 169.251 43.0412 167.748 42.3267C166.211 41.5831 164.466 41.2129 162.512 41.2129ZM97.4649 3.73956C101.966 6.12909 105.645 9.81668 108.024 14.3236C110.426 18.8242 111.721 23.2885 111.757 35.3775L111.757 57.8107C111.757 58.0936 111.587 58.3486 111.325 58.4568C111.064 58.565 110.763 58.5053 110.563 58.3053V58.3022L102.303 50.0267C101.647 49.3695 101.279 48.4787 101.279 47.5502V37.4204C101.279 28.0591 100.305 24.6649 98.4791 21.2427C96.6942 17.8629 93.9345 15.0978 90.5582 13.3062C87.1453 11.4738 83.7573 10.5 74.4178 10.5H61.0556C60.7732 10.4985 60.5194 10.3275 60.4119 10.0664C60.3045 9.80524 60.3644 9.50512 60.564 9.30533L68.824 1.02667C69.4773 0.370222 70.3671 0 71.2942 0H75.9391C88.3929 0 92.9102 1.30044 97.4649 3.73956ZM57.6862 0C57.9686 0.00149948 58.2224 0.172505 58.3298 0.433635C58.4373 0.694765 58.3773 0.99488 58.1778 1.19467L49.9178 9.47333C49.2613 10.1298 48.3747 10.5 47.4476 10.5H37.3396C28 10.5 24.612 11.4738 21.196 13.3062C17.8197 15.0978 15.06 17.8629 13.2751 21.2427C11.4489 24.6649 10.4751 28.0591 10.4751 37.4204V50.8107C10.4736 51.0922 10.3036 51.3455 10.0435 51.4535C9.78345 51.5614 9.48402 51.5031 9.28356 51.3053L1.02667 43.0267C0.369629 42.37 0 41.4792 0 40.5502V35.8929C0 23.4142 1.29733 18.8876 3.73333 14.3236C6.11227 9.81668 9.79119 6.12909 14.2924 3.73956C18.7839 1.33432 23.239 0.0363431 35.3009 0.000752139L57.6862 0ZM80.3258 17.5C88.0413 17.5 94.2947 23.7689 94.2947 31.5V40.3636C94.2933 40.6428 94.1261 40.8946 93.8692 41.0041C93.6123 41.1136 93.3149 41.0602 93.1124 40.8676L81.8502 30.0782C81.1035 29.3316 80.2324 28.7902 79.3022 28.4511C78.513 28.1521 77.6759 27.9993 76.832 28H43.5867C43.3037 27.9998 43.0488 27.8292 42.9405 27.5678C42.8323 27.3064 42.8921 27.0055 43.092 26.8053L51.3644 18.5236C52.0178 17.8702 52.9044 17.5 53.8316 17.5H80.3258ZM238.236 10.5C240.19 10.5 241.833 11.1347 243.164 12.4009C244.496 13.6702 245.162 15.2631 245.162 17.1796C245.162 19.0991 244.496 20.692 243.164 21.9582C241.833 23.2276 240.19 23.8622 238.236 23.8622C236.286 23.8622 234.671 23.1964 233.399 21.868C232.161 20.6233 231.474 18.9346 231.492 17.1796C231.492 15.3876 232.126 13.8258 233.399 12.4942C234.674 11.1658 236.286 10.5 238.236 10.5ZM381.967 10.5C383.92 10.5 385.563 11.1347 386.895 12.4009C388.226 13.6702 388.892 15.2631 388.892 17.1796C388.892 19.0991 388.226 20.692 386.895 21.9582C385.563 23.2276 383.92 23.8622 381.967 23.8622C380.013 23.8622 378.401 23.1964 377.129 21.868C375.89 20.6239 375.202 18.9351 375.219 17.1796C375.219 15.3876 375.856 13.8258 377.129 12.4942C378.401 11.1658 380.013 10.5 381.967 10.5Z" fill="white"/>
</g>
<defs>
<clipPath id="clip0_1_121">
<rect width="436" height="112" fill="white"/>
</clipPath>
</defs>
</svg>
