<svg width="734" height="140" viewBox="0 0 734 140" fill="none" xmlns="http://www.w3.org/2000/svg">
<g clip-path="url(#clip0_1_40)">
<path d="M212.796 21H233.201L247.776 81.0833C250.4 92.4583 250.983 99.1667 250.983 99.1667H251.274C251.274 99.1667 252.149 92.4583 255.064 81.0833L269.056 21H292.084L306.951 81.0833C309.866 92.75 310.449 99.1667 310.449 99.1667H310.74C310.74 99.1667 311.032 92.75 313.655 81.0833L327.647 21H348.052L322.4 119.875H299.955L284.505 60.0833C281.299 46.9583 281.007 41.4167 281.007 41.4167H280.716C280.716 41.4167 280.424 47.25 277.509 60.0833L262.934 119.875H239.614C239.031 119.875 212.796 21 212.796 21ZM344.554 84C344.554 61.5417 359.13 46.6667 381.284 46.6667C403.146 46.6667 417.721 61.25 417.721 84C417.721 106.75 403.146 121.333 381.284 121.333C359.13 121.333 344.554 106.75 344.554 84ZM398.774 84C398.774 69.4167 391.778 61.25 381.284 61.25C369.915 61.25 363.502 70.5833 363.502 84C363.502 98.875 370.498 107.042 381.284 107.042C392.361 107.042 398.774 98 398.774 84ZM426.758 47.8333H444.831V61.25H445.122C448.329 54.25 455.616 47.5417 468.442 47.5417C470.483 47.5417 471.94 47.8333 472.815 48.125V66.2083H472.232C472.232 66.2083 470.483 65.625 466.11 65.625C452.118 65.625 444.539 73.7917 444.539 89.25V120.167H426.466V47.8333H426.758ZM481.269 21H499.342V52.7917C499.342 71.4583 499.05 74.9583 499.05 74.9583H499.342L526.16 48.125H548.605L517.123 79.3333L553.561 120.167H532.281L506.046 90.4167L499.342 97.125V120.167H480.977L481.269 21ZM553.561 70.875C553.561 40.5417 572.508 20.125 600.784 20.125C629.06 20.125 648.007 40.5417 648.007 70.875C648.007 101.208 629.06 121.625 600.784 121.625C572.508 121.625 553.561 101.208 553.561 70.875ZM628.768 70.875C628.768 50.1667 617.691 36.1667 601.075 36.1667C584.46 36.1667 573.383 50.1667 573.383 70.875C573.383 91.5833 584.46 105.583 601.075 105.583C617.4 105.583 628.768 91.5833 628.768 70.875ZM655.003 86.9167H675.7C675.7 98.5833 683.57 105 695.813 105C706.016 105 713.012 99.75 713.012 92.4583C713.012 84.2917 707.473 81.9583 690.566 78.75C674.825 75.5417 658.21 70.2917 658.21 49.875C658.21 32.6667 672.785 19.8333 695.23 19.8333C718.55 19.8333 732.834 32.0833 732.834 50.4583H712.137C712.137 41.4167 705.141 35.875 695.23 35.875C685.028 35.875 678.615 40.8333 678.615 48.125C678.615 55.7083 682.987 58.9167 696.979 61.5417C717.384 65.9167 734.292 68.25 734.292 91C734.292 109.083 718.55 121.042 695.522 121.042C671.619 121.042 655.003 107.625 655.003 86.9167Z" fill="white"/>
<path d="M0 70C0 73.2083 0.874504 76.125 2.33201 78.75L30.6076 127.75C33.5226 132.708 37.8952 136.792 43.4337 138.542C53.9277 142.042 65.2963 137.667 70.8348 128.333L77.5393 116.375L50.7212 69.7083L79.2883 20.4167L85.9929 8.75C88.0334 5.25 90.6569 2.33333 93.8634 0H50.1382C42.5592 0 35.2716 4.08333 31.4821 10.7917L2.33201 61.25C0.874504 63.875 0 66.7917 0 70Z" fill="white"/>
<path d="M161.492 70C161.492 66.7917 160.617 63.875 159.16 61.25L130.593 11.6667C125.054 2.04167 113.685 -2.04166 103.191 1.45834C97.6529 3.20834 93.2804 7.29167 90.3654 12.25L83.6609 23.3333L110.77 70L82.2034 119.292L75.4988 131.25C73.4583 134.75 70.8348 137.667 67.6283 140H111.645C119.224 140 126.512 135.917 130.301 129.208L159.451 78.75C160.617 76.125 161.492 73.2083 161.492 70Z" fill="white"/>
</g>
<defs>
<clipPath id="clip0_1_40">
<rect width="734" height="140" fill="white"/>
</clipPath>
</defs>
</svg>
