<svg width="594" height="160" viewBox="0 0 594 160" fill="none" xmlns="http://www.w3.org/2000/svg">
<g clip-path="url(#clip0_5_2)">
<g clip-path="url(#clip1_5_2)">
<path d="M0.0668335 0H106.972V53.3333H53.5192L0.0668335 0ZM0.0668335 53.3333H53.5192L106.972 106.667H0.0668335V53.3333ZM0.0668335 106.667H53.5192V160L0.0668335 106.667Z" fill="white"/>
</g>
<path d="M427.27 27.3196C423.503 30.857 422.396 36.6052 424.722 41.0269C426.938 45.3381 429.596 46.7751 435.357 46.7751C443.777 46.7751 447.432 43.3483 447.543 35.4998C447.543 31.0781 447.1 29.9726 444.109 27.5407C439.456 23.5612 431.369 23.4506 427.27 27.3196Z" fill="white"/>
<path d="M206.038 76.6218V123.05H217.117H228.195L228.306 98.9515V74.9637L235.174 88.4499L242.043 102.047H251.459H260.876L267.744 88.4499L274.612 74.9637V98.9515L274.723 123.05H285.801H296.88V76.6218V30.0833L286.245 30.4149L275.72 30.7466L263.867 55.2871C257.33 68.7733 251.791 79.8276 251.459 79.9381C251.127 79.9381 245.588 68.8838 239.051 55.2871L227.309 30.7466L216.674 30.4149L206.038 30.0833V76.6218Z" fill="white"/>
<path d="M382.182 44.0117V53.4078H377.75H373.319V62.2513V71.0947H377.64H381.96L382.403 90.7713C382.736 109.232 382.846 110.558 385.394 114.649C389.272 120.839 394.811 123.05 406.886 123.05H416.524V114.206V105.363H412.204C404.892 105.363 404.338 104.036 404.338 86.4601V71.0947H410.985H417.632V62.2513V53.4078H410.985H404.338V44.0117V34.6156H393.26H382.182V44.0117Z" fill="white"/>
<path d="M324.464 54.292C316.488 57.4977 311.614 61.9194 308.29 68.6625C305.742 73.858 305.188 76.7322 304.856 85.5756C304.081 103.484 308.733 113.985 320.255 120.286C325.24 122.939 327.788 123.602 335.764 123.934C349.169 124.597 356.37 122.386 363.238 115.533C370.328 108.458 372.211 102.599 372.211 88.2286C372.211 70.6523 367.891 61.9194 356.259 55.9501C348.615 51.9706 332.33 51.1968 324.464 54.292ZM346.842 73.0842C349.833 75.7373 350.387 77.0638 350.831 83.4753C352.16 99.8356 348.615 106.468 338.755 106.468C334.213 106.468 332.773 105.915 330.004 103.262C326.902 100.057 326.791 99.7251 326.791 88.2286C326.791 76.7322 326.902 76.4005 330.004 73.1948C334.546 68.6625 341.857 68.6625 346.842 73.0842Z" fill="white"/>
<path d="M473.909 54.1815C466.819 56.5029 459.951 62.5827 456.849 69.3258C454.522 74.3003 454.19 76.6217 454.19 88.2287C454.19 99.8357 454.522 102.157 456.849 107.131C460.061 113.985 467.041 120.176 474.352 122.607C482.218 125.15 498.392 124.376 504.707 121.06C510.91 117.854 516.117 112.548 518.887 106.468C521.989 99.6146 522.21 78.722 519.219 70.8734C516.449 63.7987 508.141 56.2818 500.608 54.0709C493.185 51.8601 480.667 51.8601 473.909 54.1815ZM495.955 72.6421C499.057 75.2952 499.057 75.4057 499.057 88.2287C499.057 101.052 499.057 101.162 495.955 103.815C492.52 106.689 484.766 107.463 480.556 105.252C477.122 103.373 475.239 97.4037 475.239 88.3392C475.239 74.6319 478.34 70.0996 487.646 69.9891C491.523 69.9891 493.628 70.6524 495.955 72.6421Z" fill="white"/>
<path d="M557.66 54.4027C555.112 55.5081 552.232 57.6085 551.235 59.0455L549.463 61.588V57.4979V53.4078H538.938H528.414V88.2288V123.05H539.492H550.57V100.499C550.57 78.1694 550.57 77.8378 553.229 74.7426C555.445 72.2001 556.774 71.6474 561.095 71.6474C565.194 71.6474 566.744 72.2001 568.406 74.3004C570.29 76.6218 570.511 78.8327 570.511 99.9464V123.05H582.254H593.997L593.554 96.7406C593.111 68.7733 592.446 65.2359 586.796 59.0455C580.703 52.4129 566.855 50.2021 557.66 54.4027Z" fill="white"/>
<path d="M424.279 88.2288V123.05H435.357H446.435V88.2288V53.4078H435.357H424.279V88.2288Z" fill="white"/>
</g>
<defs>
<clipPath id="clip0_5_2">
<rect width="594" height="160" fill="white"/>
</clipPath>
<clipPath id="clip1_5_2">
<rect width="107.038" height="160" fill="white"/>
</clipPath>
</defs>
</svg>
