<svg width="658" height="147" viewBox="0 0 658 147" fill="none" xmlns="http://www.w3.org/2000/svg">
<path d="M637.351 110.25V56.7902H650.005V110.25H637.351ZM643.678 49.2105C642.273 49.226 640.892 48.8395 639.7 48.0967C638.507 47.3539 637.552 46.2859 636.949 45.0187C636.546 44.2148 636.373 43.2961 636.373 42.3773C636.366 41.4633 636.558 40.5587 636.936 39.726C637.313 38.8932 637.867 38.1521 638.559 37.5539C639.939 36.2332 641.78 35.4867 643.736 35.5441C645.749 35.5441 647.417 36.2332 648.912 37.5539C649.594 38.1574 650.137 38.9009 650.504 39.7334C650.872 40.5659 651.054 41.4677 651.04 42.3773C651.04 44.2722 650.293 45.88 648.855 47.2007C647.462 48.525 645.601 49.2472 643.678 49.2105ZM611.756 87.7406V56.8476H624.41V110.25H612.159V100.775H611.583C610.364 103.748 608.28 106.288 605.602 108.068C602.898 110.02 599.505 110.939 595.478 110.939C592.269 111.116 589.08 110.337 586.315 108.701C583.55 107.066 581.334 104.647 579.949 101.752C578.396 98.7656 577.648 95.0906 577.648 90.8414V56.7902H590.302V88.889C590.302 92.2769 591.165 94.9757 593.063 96.9281C594.903 98.9379 597.319 99.9715 600.367 99.9715C602.208 99.9715 604.049 99.5121 605.774 98.5933C607.5 97.6746 608.995 96.2964 610.03 94.5738C611.181 92.7363 611.756 90.4968 611.756 87.798V87.7406ZM569.596 35.6015L546.589 120.988H535.488L558.495 35.6015H569.538H569.596Z" fill="white"/>
<path fill-rule="evenodd" clip-rule="evenodd" d="M122.915 70.2269C123.35 70.6543 123.695 71.1638 123.931 71.7258C124.166 72.2877 124.288 72.8908 124.288 73.4999C124.288 74.1091 124.166 74.7122 123.931 75.2741C123.695 75.836 123.35 76.3455 122.915 76.773L76.9009 122.71C76.0313 123.579 74.852 124.066 73.6224 124.066C72.3927 124.066 71.2134 123.579 70.3439 122.71C69.4744 121.842 68.9859 120.665 68.9859 119.437C68.9859 118.21 69.4744 117.032 70.3439 116.164L116.358 70.2269C116.786 69.7929 117.296 69.4482 117.859 69.2129C118.422 68.9776 119.026 68.8564 119.636 68.8564C120.247 68.8564 120.851 68.9776 121.413 69.2129C121.976 69.4482 122.487 69.7929 122.915 70.2269ZM113.712 19.6956C114.147 20.1231 114.492 20.6326 114.728 21.1945C114.963 21.7564 115.085 22.3595 115.085 22.9687C115.085 23.5779 114.963 24.181 114.728 24.7429C114.492 25.3048 114.147 25.8143 113.712 26.2417L26.2855 113.523C25.8549 113.953 25.3438 114.294 24.7813 114.526C24.2188 114.759 23.6159 114.879 23.007 114.879C22.3981 114.879 21.7952 114.759 21.2327 114.526C20.6701 114.294 20.159 113.953 19.7285 113.523C19.2979 113.093 18.9564 112.583 18.7234 112.021C18.4904 111.46 18.3705 110.858 18.3705 110.25C18.3705 109.642 18.4904 109.04 18.7234 108.479C18.9564 107.917 19.2979 107.407 19.7285 106.977L107.155 19.6956C107.583 19.2616 108.094 18.9169 108.656 18.6816C109.219 18.4464 109.823 18.3252 110.434 18.3252C111.044 18.3252 111.648 18.4464 112.211 18.6816C112.774 18.9169 113.284 19.2616 113.712 19.6956Z" fill="white"/>
<path d="M493.212 78.9551V110.25H480.616V56.7903H492.695V65.8629H493.27C494.478 62.9918 496.548 60.4653 499.194 58.7426C501.898 57.02 505.291 56.1012 509.26 56.1012C512.633 56.0145 515.969 56.8272 518.923 58.4555C521.684 60.0633 523.927 62.475 525.365 65.3461C526.86 68.3321 527.665 71.9497 527.608 76.2563V110.25H514.954V78.1512C514.954 74.5911 514.091 71.8348 512.193 69.7676C511.217 68.7354 510.026 67.9284 508.705 67.4028C507.384 66.8771 505.963 66.6456 504.543 66.7243C502.358 66.7243 500.402 67.2411 498.677 68.2172C496.951 69.1934 495.571 70.629 494.65 72.3516C493.73 74.1891 493.212 76.3711 493.212 78.9551ZM447.313 111.284C442.659 111.567 438.025 110.463 434 108.111C429.975 105.76 426.741 102.267 424.709 98.0766C422.594 93.5913 421.551 88.6773 421.661 83.7211C421.57 78.7542 422.653 73.8358 424.824 69.3657C426.78 65.3461 429.828 61.9008 433.682 59.604C437.478 57.3071 442.022 56.1012 447.256 56.1012C451.223 56.0338 455.155 56.8581 458.759 58.5129C462.031 60.0043 464.832 62.3599 466.859 65.3252C468.887 68.2906 470.064 71.7528 470.263 75.3375H458.184C457.777 72.8558 456.564 70.5762 454.733 68.8489C452.893 67.1262 450.477 66.2649 447.429 66.2649C445.013 66.2649 442.597 66.954 440.641 68.3321C438.686 69.7102 437.19 71.6625 436.04 74.2465C434.895 77.2111 434.347 80.3725 434.43 83.5489C434.43 87.1665 435.005 90.3247 436.04 92.9086C437.133 95.4926 438.628 97.5024 440.584 98.9379C442.588 100.335 444.985 101.059 447.429 101.005C449.269 101.005 450.937 100.661 452.432 99.9715C453.87 99.2825 455.193 98.2489 456.114 96.8707C457.206 95.4352 457.839 93.77 458.184 91.9899H470.263C470.088 95.551 468.954 98.9991 466.98 101.97C465.006 104.942 462.265 107.326 459.047 108.872C455.373 110.563 451.358 111.388 447.313 111.284ZM381.974 111.169C377.875 111.246 373.85 110.08 370.43 107.824C367.01 105.569 364.357 102.33 362.82 98.536C360.778 93.8296 359.797 88.733 359.944 83.6063C359.944 77.6344 360.922 72.6387 362.82 68.5618C364.833 64.4274 367.479 61.3266 370.873 59.2594C373.669 57.4994 376.879 56.4737 380.194 56.2738C383.509 56.0739 386.823 56.7054 389.818 58.1124C392.653 59.4331 395.086 61.4429 396.926 63.9688C398.88 66.6676 400.087 69.7676 400.547 73.0989H388.065C387.374 70.9181 386.051 69.0231 384.263 67.6449C382.423 66.2668 380.181 65.5778 377.709 65.5778C375.178 65.5778 372.994 66.2668 371.154 67.5875C369.314 68.9082 367.876 70.8606 366.898 73.3865C365.863 76.0279 365.345 79.0705 365.345 82.5733C365.345 91.0106 367.993 97.04 373.288 100.603C375.301 101.866 377.651 102.497 380.021 102.441C382.134 102.441 383.974 101.982 385.584 101.063C387.194 100.144 388.459 98.8807 389.378 97.2729C390.412 95.5502 390.987 93.5404 391.275 91.3596H378.447V83.4337H401.697V110.25H392.308L391.102 102.67H390.527C389.147 105.369 387.079 107.609 384.551 109.159C381.873 110.767 378.735 111.571 375.597 111.456L381.974 111.169ZM320.327 110.25V35.4867H333.269V65.1738H333.845C334.42 63.9688 335.224 62.8213 336.258 61.7312C337.408 60.5261 338.845 59.5499 340.628 58.7426C342.41 57.9354 344.596 57.5317 347.184 57.5317C350.693 57.4743 354.145 58.4555 357.078 60.2936C360.011 62.1311 362.369 64.7725 364.094 68.1617C365.877 71.7219 366.74 75.9137 366.74 80.6775C366.74 85.4413 365.877 89.5182 364.094 93.0209C362.369 96.4676 359.954 99.1664 357.021 101.004C354.088 102.841 350.75 103.765 347.184 103.765C344.653 103.765 342.525 103.362 340.743 102.555C338.96 101.809 337.523 100.832 336.373 99.6846C335.166 98.4795 334.305 97.332 333.73 96.1269H332.924V110.25H320.327ZM333.039 80.6775C333.039 83.6052 333.441 86.1885 334.305 88.3693C335.166 90.5502 336.373 92.2154 338.04 93.4205C339.708 94.6256 341.72 95.2572 344.078 95.2572C346.551 95.2572 348.622 94.6256 350.289 93.3631C351.899 92.1006 353.164 90.3779 354.025 88.2545C354.886 86.0737 355.346 83.5478 355.346 80.6775C355.346 77.8646 354.886 75.3961 354.025 73.2153C353.164 71.0345 351.957 69.3692 350.289 68.1617C348.679 66.9566 346.608 66.3251 344.078 66.3251C341.663 66.3251 339.65 66.8992 338.04 68.0468C336.316 69.1944 335.109 70.8597 334.305 72.9831C333.441 75.1639 333.039 77.7478 333.039 80.6775ZM254.497 110.25L233.769 56.7903H247.749L260.128 95.3146H260.704L273.14 56.7903H287.12L266.507 110.25H254.497ZM195.138 110.25V35.4867H208.08V65.1738H208.656C209.231 63.9688 210.035 62.8213 211.069 61.7312C212.219 60.5261 213.656 59.5499 215.438 58.7426C217.221 57.9354 219.407 57.5317 221.995 57.5317C225.504 57.4743 228.956 58.4555 231.889 60.2936C234.822 62.1311 237.18 64.7725 238.905 68.1617C240.688 71.7219 241.55 75.9137 241.55 80.6775C241.55 85.4413 240.688 89.5182 238.905 93.0209C237.18 96.4676 234.764 99.1664 231.831 101.004C228.898 102.841 225.561 103.765 221.995 103.765C219.464 103.765 217.336 103.362 215.554 102.555C213.771 101.809 212.334 100.832 211.184 99.6846C209.977 98.4795 209.116 97.332 208.541 96.1269H207.735V110.25H195.138ZM207.85 80.6775C207.85 83.6052 208.252 86.1885 209.116 88.3693C209.977 90.5502 211.184 92.2154 212.852 93.4205C214.519 94.6256 216.531 95.2572 218.889 95.2572C221.362 95.2572 223.433 94.6256 225.1 93.3631C226.71 92.1006 227.975 90.3779 228.836 88.2545C229.697 86.0737 230.157 83.5478 230.157 80.6775C230.157 77.8646 229.697 75.3961 228.836 73.2153C227.975 71.0345 226.768 69.3692 225.1 68.1617C223.49 66.9566 221.419 66.3251 218.889 66.3251C216.474 66.3251 214.461 66.8992 212.852 68.0468C211.126 69.1944 209.92 70.8597 209.116 72.9831C208.252 75.1639 207.85 77.7478 207.85 80.6775Z" fill="white"/>
</svg>
