<svg width="1979" height="250" viewBox="0 0 1979 250" fill="none" xmlns="http://www.w3.org/2000/svg">
<g clip-path="url(#clip0_412_4)">
<path d="M1.70898 214.268V36.0449H179.932V214.268H1.70898ZM37.3535 178.623H144.287V71.6895H37.3535V178.623ZM358.398 36.0449H394.043V71.6895H358.398V107.334H322.754V71.6895H358.398V36.0449ZM215.576 178.867H251.221V143.223H286.865V178.867H251.221V214.512H215.576V178.867ZM322.754 143.223H286.865V107.334H322.754V143.223ZM429.688 214.268V178.623H500.977V71.6895H429.688V36.0449H536.621V178.623H607.91V214.268H429.688ZM768.555 214.268V178.623H911.133V142.979H768.555V36.0449H946.777V71.6895H804.199V107.334H946.777V214.268H768.555ZM982.422 71.6895V36.0449H1160.64V71.6895H1089.36V214.268H1053.71V71.6895H982.422ZM1196.29 214.268V36.0449H1231.93V178.623H1338.87V36.0449H1374.51V214.268H1196.29ZM1410.16 214.268V36.0449H1552.73V71.6895H1445.8V178.623H1552.73V71.6895H1588.38V214.268H1410.16ZM1624.02 214.268V178.623H1659.67V71.6895H1624.02V36.0449H1730.96V71.6895H1695.31V178.623H1730.96V214.268H1624.02ZM1766.6 214.268V36.0449H1944.82V214.268H1766.6ZM1802.25 178.623H1909.18V71.6895H1802.25V178.623Z" fill="white"/>
<a href="mailto:crdesabille@gmail.com">
<rect fill="black" fill-opacity="0" x="427.979" width="213.867" height="250"/>
</a>
</g>
<defs>
<clipPath id="clip0_412_4">
<rect width="1979" height="250" fill="white"/>
</clipPath>
</defs>
</svg>
