<svg width="524" height="136" viewBox="0 0 524 136" fill="none" xmlns="http://www.w3.org/2000/svg">
<path d="M200.959 51.2757L190.296 80.7701H212.051L201.301 51.2757H200.959ZM181.093 106.309H171.808L196.4 40.9572H205.945L230.537 106.309H221.252L214.974 88.5951H187.456L181.093 106.309Z" fill="white"/>
<path d="M234.751 61.5936H242.833V67.7846H243.178C244.424 65.6134 246.382 63.8078 249.025 62.3673C251.712 60.8841 254.464 60.1317 257.281 60.1317C262.784 60.1317 266.996 61.7225 269.921 64.861C272.887 67.9565 274.392 72.4066 274.392 78.1893V106.308H265.966V78.7912C265.792 71.4607 262.116 67.7846 254.959 67.7846C251.626 67.7846 248.809 69.1605 246.53 71.912C244.296 74.6208 243.178 77.8239 243.178 81.5429V106.308H234.751V61.5936Z" fill="white"/>
<path d="M289.969 92.6355C289.969 94.8281 290.871 96.6555 292.721 98.1387C294.548 99.579 296.719 100.288 299.255 100.288C302.738 100.288 305.876 98.9987 308.628 96.419C311.423 93.7962 312.842 90.7007 312.842 87.1322C310.196 85.0685 306.522 84.0366 301.835 84.0366C298.438 84.0366 295.601 84.875 293.321 86.5303C291.087 88.1424 289.969 90.1848 289.969 92.6355ZM300.803 60.1317C306.995 60.1317 311.852 61.8084 315.421 65.1191C319.032 68.4511 320.839 73.0085 320.839 78.7912V106.308H312.842V100.116H312.498C308.993 105.233 304.351 107.769 298.568 107.769C293.623 107.769 289.496 106.308 286.184 103.384C282.917 100.461 281.284 96.8274 281.284 92.4635C281.284 87.82 283.025 84.1655 286.528 81.457C290.011 78.7052 294.698 77.3294 300.546 77.3294C305.532 77.3294 309.618 78.2323 312.842 79.9952V78.1034C312.842 75.1797 311.659 72.729 309.317 70.7083C307.015 68.6446 304.328 67.6127 301.232 67.6127C296.525 67.6127 292.829 69.5905 290.14 73.546L282.746 68.9024C286.807 63.0554 292.829 60.1317 300.803 60.1317Z" fill="white"/>
<path d="M338.416 40.9575V106.309H329.99V40.9575H338.416Z" fill="white"/>
<path d="M387.949 61.5951L359.917 126.001H351.319L361.724 103.472L343.235 61.5951H352.35L365.679 93.7548H365.85L378.835 61.5951H387.949Z" fill="white"/>
<path d="M411.039 106.998C407.428 106.998 404.417 105.88 402.01 103.644C399.602 101.409 398.356 98.2917 398.313 94.2717V69.249H390.402V61.5958H398.313V47.9237H406.654V61.5958H417.659V69.249H406.654V91.5201C406.654 94.5081 407.212 96.5505 408.373 97.6253C409.576 98.6571 410.888 99.173 412.328 99.173C413.017 99.173 413.66 99.1301 414.306 99.0011C414.929 98.829 415.532 98.6355 416.113 98.3991L418.691 105.88C416.5 106.611 413.962 106.998 411.039 106.998Z" fill="white"/>
<path d="M436.039 46.2024C436.039 47.8148 435.436 49.212 434.232 50.416C433.071 51.5768 431.696 52.1357 430.106 52.1357C428.429 52.1357 427.032 51.5768 425.891 50.416C424.73 49.212 424.172 47.8148 424.172 46.2024C424.172 44.5471 424.73 43.1498 425.891 41.9891C427.032 40.8497 428.429 40.2692 430.106 40.2692C431.696 40.2692 433.071 40.8497 434.232 41.9891C435.436 43.1498 436.039 44.5471 436.039 46.2024ZM434.32 61.5944V106.309H425.891V61.5944H434.32Z" fill="white"/>
<path d="M462.613 107.769C455.949 107.769 450.446 105.512 446.103 100.976C441.806 96.3975 439.655 90.7223 439.655 83.9507C439.655 77.0715 441.806 71.3961 446.103 66.9247C450.446 62.4103 455.949 60.1317 462.613 60.1317C467.192 60.1317 471.17 61.2925 474.566 63.5713C477.941 65.8715 480.499 69.0316 482.22 73.0301L474.566 76.2116C472.201 70.6008 468.052 67.7847 462.098 67.7847C458.251 67.7847 454.919 69.3324 452.124 72.428C449.372 75.5238 447.995 79.3717 447.995 83.9507C447.995 88.551 449.372 92.3774 452.124 95.4732C454.919 98.5687 458.251 100.116 462.098 100.116C468.225 100.116 472.525 97.3218 474.995 91.6896L482.477 94.871C480.866 98.8911 478.307 102.051 474.824 104.33C471.321 106.609 467.257 107.769 462.613 107.769Z" fill="white"/>
<path d="M524.009 93.9258C524.009 97.8384 522.29 101.127 518.85 103.815C515.455 106.437 511.198 107.77 506.038 107.77C501.568 107.77 497.612 106.588 494.172 104.245C490.774 101.901 488.347 98.8056 486.862 94.9577L494.343 91.7762C495.484 94.4847 497.095 96.57 499.16 98.0532C501.266 99.558 503.566 100.289 506.038 100.289C508.725 100.289 510.961 99.7302 512.746 98.5692C514.573 97.4298 515.497 96.0541 515.497 94.4418C515.497 91.5827 513.283 89.4974 508.876 88.1645L501.223 86.2727C492.496 84.0371 488.153 79.8235 488.153 73.6324C488.153 69.5694 489.807 66.3019 493.139 63.8296C496.451 61.3789 500.706 60.1322 505.865 60.1322C509.821 60.1322 513.389 61.0781 516.616 62.9699C519.817 64.8615 522.054 67.3983 523.323 70.5369L515.842 73.6324C514.982 71.7406 513.562 70.2788 511.627 69.2469C509.735 68.1721 507.607 67.6132 505.264 67.6132C503.071 67.6132 501.093 68.1721 499.331 69.2469C497.612 70.3434 496.75 71.6976 496.75 73.2884C496.75 75.825 499.16 77.6525 503.975 78.7917L510.682 80.5116C519.561 82.7042 524.009 87.1756 524.009 93.9258Z" fill="white"/>
<path d="M84.375 16.358V117.608C84.375 128.946 92.1892 135.25 100.483 135.25C108.153 135.25 116.59 129.881 116.59 117.608V17.125C116.59 6.74598 108.92 0.25 100.483 0.25C92.0452 0.25 84.375 7.41715 84.375 16.358Z" fill="white"/>
<path d="M42.1663 67.7502V117.608C42.1663 128.946 49.9806 135.25 58.2743 135.25C65.9448 135.25 74.3823 129.881 74.3823 117.608V68.5173C74.3823 58.1382 66.7118 51.6423 58.2743 51.6423C49.8368 51.6423 42.1663 58.8094 42.1663 67.7502Z" fill="white"/>
<path d="M32.216 119.142C32.216 128.035 25.0009 135.25 16.108 135.25C7.21508 135.25 0 128.035 0 119.142C0 110.25 7.21508 103.035 16.108 103.035C25.0009 103.035 32.216 110.25 32.216 119.142Z" fill="white"/>
</svg>
