<svg width="666" height="82" viewBox="0 0 666 82" fill="none" xmlns="http://www.w3.org/2000/svg">
<g clip-path="url(#clip0_4_58)">
<path fill-rule="evenodd" clip-rule="evenodd" d="M68.7 0C50.4 0 39 9.1 34.4 27.3C41.3 18.2 49.3 14.8 58.5 17C63.7 18.3 67.5 22.1 71.6 26.2C78.3 33.1 86.1 41 103.1 41C121.4 41 132.9 31.9 137.5 13.7C130.6 22.8 122.6 26.2 113.5 23.9C108.3 22.6 104.5 18.8 100.4 14.7C93.6 7.9 85.8 0 68.7 0ZM34.4 41C16 41 4.6 50.1 0 68.3C6.9 59.2 14.9 55.8 24.1 58C29.3 59.3 33.1 63.1 37.2 67.2C43.9 74.1 51.7 82 68.7 82C87 82 98.5 72.9 103.1 54.7C96.2 63.8 88.2 67.2 79 64.9C73.8 63.6 70 59.8 65.9 55.7C59.2 48.9 51.4 41 34.4 41Z" fill="white"/>
<path fill-rule="evenodd" clip-rule="evenodd" d="M206.2 34.4999H194.2V57.5999C194.2 63.7999 198.3 63.6999 206.2 63.2999V72.5999C190.1 74.4999 183.7 70.0999 183.7 57.5999V34.4999H174.8V24.4999H183.7V11.5999L194.2 8.4999V24.4999H206.2V34.4999ZM252 24.5999H262.4V72.6999H252V65.7999C248.3 70.8999 242.6 73.9999 235.1 73.9999C221.9 73.9999 211 62.8999 211 48.6999C211 34.3999 221.9 23.3999 235.1 23.3999C242.6 23.3999 248.4 26.4999 252 31.4999V24.5999ZM236.7 63.9999C245.4 63.9999 252 57.4999 252 48.5999C252 39.5999 245.4 33.1999 236.7 33.1999C228 33.1999 221.4 39.6999 221.4 48.5999C221.4 57.4999 228 63.9999 236.7 63.9999ZM279.8 17.2999C276.1 17.2999 273.1 14.1999 273.1 10.6999C273.1 6.9999 276.1 4.0999 279.8 4.0999C283.5 4.0999 286.5 7.0999 286.5 10.6999C286.5 14.2999 283.5 17.2999 279.8 17.2999ZM274.6 72.5999V24.5999H285V72.6999H274.6V72.5999ZM297.1 72.5999V2.3999H307.5V72.5999H297.1ZM375.4 24.5999H386.4L371.2 72.6999H361L350.9 40.2999L340.7 72.6999H330.4L315.2 24.5999H326.2L335.6 57.7999L345.8 24.5999H355.8L365.9 57.7999L375.4 24.5999ZM399.4 17.2999C395.7 17.2999 392.7 14.1999 392.7 10.6999C392.7 6.9999 395.7 4.0999 399.4 4.0999C403.1 4.0999 406.1 7.0999 406.1 10.6999C406.1 14.2999 403.1 17.2999 399.4 17.2999ZM394.2 72.5999V24.5999H404.6V72.6999H394.2V72.5999ZM442.2 23.2999C453 23.2999 460.8 30.5999 460.8 43.0999V72.5999H450.4V44.1999C450.4 36.8999 446.2 32.9999 439.6 32.9999C432.7 32.9999 427.3 36.9999 427.3 46.8999V72.6999H416.8V24.5999H427.3V30.6999C430.3 25.6999 435.6 23.2999 442.2 23.2999ZM510.3 5.2999H520.8V72.5999H510.3V65.6999C506.6 70.7999 500.9 73.8999 493.4 73.8999C480.3 73.8999 469.3 62.7999 469.3 48.5999C469.3 34.2999 480.2 23.2999 493.4 23.2999C500.9 23.2999 506.7 26.3999 510.3 31.3999V5.2999ZM495 63.9999C503.7 63.9999 510.3 57.4999 510.3 48.5999C510.3 39.5999 503.7 33.1999 495 33.1999C486.3 33.1999 479.7 39.6999 479.7 48.5999C479.7 57.4999 486.3 63.9999 495 63.9999ZM555.7 73.8999C541.1 73.8999 530.1 62.7999 530.1 48.5999C530.1 34.2999 541 23.2999 555.7 23.2999C567.2 23.2999 576.6 30.5999 579.8 40.8999H568.6C566.5 36.1999 561.6 33.0999 555.7 33.0999C547 33.0999 540.5 39.6999 540.5 48.5999C540.5 57.4999 547 63.9999 555.7 63.9999C561.6 63.9999 566.5 60.8999 568.6 56.1999H579.8C576.6 66.4999 567.2 73.8999 555.7 73.8999ZM612.7 73.8999C598.2 73.8999 587.1 62.7999 587.1 48.5999C587.1 34.2999 598.1 23.2999 612.7 23.2999C627.3 23.2999 638.3 34.2999 638.3 48.5999C638.3 62.8999 627.2 73.8999 612.7 73.8999ZM612.7 63.9999C621.4 63.9999 627.9 57.4999 627.9 48.5999C627.9 39.6999 621.4 33.1999 612.7 33.1999C604 33.1999 597.5 39.6999 597.5 48.5999C597.5 57.4999 604 63.9999 612.7 63.9999ZM665.4 23.2999V33.4999C657.5 33.0999 650.4 37.5999 650.4 48.0999V72.5999H639.9V24.5999H650.4V31.2999C653.3 25.5999 658.7 23.2999 665.4 23.2999Z" fill="white"/>
</g>
<defs>
<clipPath id="clip0_4_58">
<rect width="665.4" height="82" fill="white"/>
</clipPath>
</defs>
</svg>
